<?xml version="1.0" encoding="UTF-8"?>
<!DOCTYPE svg PUBLIC "-//W3C//DTD SVG 1.1//EN" "http://www.w3.org/Graphics/SVG/1.1/DTD/svg11.dtd">
<!-- Creator: CorelDRAW X8 -->
<svg xmlns="http://www.w3.org/2000/svg" xml:space="preserve" width="70px" height="70px" version="1.1" style="shape-rendering:geometricPrecision; text-rendering:geometricPrecision; image-rendering:optimizeQuality; fill-rule:evenodd; clip-rule:evenodd"
viewBox="0 0 7734 7734"
 xmlns:xlink="http://www.w3.org/1999/xlink">
 <defs>
  <style type="text/css">
   <![CDATA[
    .fil0 {fill:#31549C;fill-rule:nonzero}
   ]]>
  </style>
 </defs>
 <g id="Слой_x0020_1">
  <metadata id="CorelCorpID_0Corel-Layer"/>
  <g id="_1830385200384">
   <path class="fil0" d="M6123 4834c-333,0 -669,-203 -919,-547 564,-508 919,-1295 919,-2031 0,-109 -11,-215 -26,-320 9,0 17,-3 26,-3 710,0 1289,579 1289,1289 0,726 -595,1612 -1289,1612zm-2417 322l161 -215 161 215 -322 0zm-1773 -322c-892,0 -1611,-1058 -1611,-1934 0,-852 667,-1544 1505,-1600 -137,290 -216,614 -216,956 0,841 462,1752 1174,2233 -263,220 -558,345 -852,345zm1934 -4512c1066,0 1933,867 1933,1934 0,1043 -844,2255 -1933,2255 -1089,0 -1934,-1212 -1934,-2255 0,-1067 868,-1934 1934,-1934zm3867 2900c0,-888 -723,-1611 -1611,-1611 -31,0 -63,7 -93,9 -275,-935 -1140,-1620 -2163,-1620 -766,0 -1444,385 -1852,971 -27,-2 -54,-4 -82,-4 -1066,0 -1933,867 -1933,1933 0,962 719,2066 1685,2232l-57 113c-25,50 -22,109 7,157 26,41 71,65 119,71 -23,94 -65,162 -116,238 -83,126 -188,282 -188,573 0,290 105,447 188,572 75,113 134,202 134,394 0,89 72,162 161,162 90,0 162,-73 162,-162 0,-290 -105,-447 -189,-572 -74,-113 -134,-201 -134,-394 0,-193 60,-282 134,-394 67,-100 144,-222 174,-412l15 0c56,0 107,-29 137,-76 29,-48 32,-107 7,-157l-57 -113c321,-56 633,-219 905,-475 152,70 312,120 479,149l-311 414c-37,49 -43,114 -16,169 28,55 84,89 145,89l310 0c-22,137 -72,225 -128,323 -85,150 -182,319 -182,644 0,325 97,494 182,644 75,131 140,245 140,484 0,89 72,161 161,161 89,0 161,-72 161,-161 0,-325 -97,-495 -182,-644 -75,-132 -140,-245 -140,-484 0,-239 65,-353 140,-484 69,-122 144,-262 170,-483l334 0c61,0 117,-34 145,-89 27,-55 21,-120 -16,-169l-311 -414c284,-48 548,-159 784,-319 251,341 579,565 925,639l-60 119c-25,50 -22,109 8,157 29,47 81,76 137,76l17 0c33,158 112,259 179,342 76,95 126,158 126,303 0,145 -50,207 -126,302 -88,109 -196,245 -196,503 0,89 72,161 161,161 89,0 161,-72 161,-161 0,-145 50,-207 126,-302 87,-109 196,-246 196,-503 0,-258 -109,-394 -196,-504 -42,-52 -75,-96 -97,-148 44,-9 84,-31 108,-69 29,-48 32,-107 7,-157l-59 -119c774,-170 1365,-1110 1365,-1904z"/>
   <path class="fil0" d="M2408 2255c6,0 12,1 18,1 81,0 151,-61 160,-144 48,-436 313,-814 708,-1011 80,-40 112,-136 73,-216 -40,-80 -136,-112 -217,-72 -493,245 -824,718 -884,1264 -10,88 54,168 142,178z"/>
   <path class="fil0" d="M1013 1999c-238,242 -369,563 -369,901 0,89 73,161 162,161 89,0 161,-72 161,-161 0,-254 98,-494 276,-676 62,-63 61,-165 -2,-228 -64,-61 -166,-61 -228,3z"/>
  </g>
 </g>
</svg>
