<?xml version="1.0" encoding="UTF-8"?>
<!DOCTYPE svg PUBLIC "-//W3C//DTD SVG 1.1//EN" "http://www.w3.org/Graphics/SVG/1.1/DTD/svg11.dtd">
<!-- Creator: CorelDRAW X8 -->
<svg xmlns="http://www.w3.org/2000/svg" xml:space="preserve" width="70px" height="70px" version="1.1" style="shape-rendering:geometricPrecision; text-rendering:geometricPrecision; image-rendering:optimizeQuality; fill-rule:evenodd; clip-rule:evenodd"
viewBox="0 0 51907 51931"
 xmlns:xlink="http://www.w3.org/1999/xlink">
 <defs>
  <style type="text/css">
   <![CDATA[
    .fil0 {fill:#31549C;fill-rule:nonzero}
   ]]>
  </style>
 </defs>
 <g id="Слой_x0020_1">
  <metadata id="CorelCorpID_0Corel-Layer"/>
  <path class="fil0" d="M40235 25497l0 3355c-1193,-967 -2954,-896 -4064,213l-5021 5021c-305,-2597 -2518,-4620 -5197,-4620 -2677,0 -4890,2023 -5196,4620l-5021 -5021c-1110,-1109 -2871,-1180 -4064,-213l0 -3355 7844 -7844 0 11167c0,560 453,1013 1014,1013 560,0 1013,-453 1013,-1013l0 -5293 8820 0 0 5293c0,560 454,1013 1014,1013 560,0 1014,-453 1014,-1013l0 -11167 7844 7844zm-14282 12410c-1767,0 -3206,-1439 -3206,-3207 0,-1768 1439,-3206 3206,-3206 1769,0 3207,1438 3207,3206 0,1768 -1438,3207 -3207,3207zm13086 -5974l-8379 8377c-190,191 -297,449 -297,718l0 8647 -8820 0 0 -8647c0,-269 -106,-527 -297,-718l-8378 -8377c-395,-395 -395,-1039 0,-1434 396,-396 1039,-396 1434,0l9553 9552c190,190 447,297 716,297l2764 0c269,0 528,-107 718,-297l9552 -9552c395,-396 1039,-396 1434,0 395,395 395,1039 0,1434zm-26171 -29609c396,-395 1039,-395 1434,0l9553 9553c190,190 447,296 716,296l2764 0c269,0 528,-106 718,-296l9552 -9553c395,-395 1039,-395 1434,0 395,396 395,1038 0,1433l-8379 8379c-190,190 -297,448 -297,717l0 8647 -8820 0 0 -8647c0,-269 -106,-527 -297,-717l-8378 -8378c-395,-396 -395,-1039 0,-1434zm13085 995c1769,0 3207,1439 3207,3207 0,1767 -1438,3206 -3207,3206 -1767,0 -3206,-1439 -3206,-3206 0,-1768 1439,-3207 3206,-3207zm-20719 12225c1768,0 3207,1439 3207,3206 0,1768 -1439,3207 -3207,3207 -1768,0 -3206,-1439 -3206,-3207 0,-1767 1438,-3206 3206,-3206zm41439 0c1768,0 3206,1439 3206,3206 0,1768 -1438,3207 -3206,3207 -1768,0 -3206,-1439 -3206,-3207 0,-1767 1438,-3206 3206,-3206zm-11651 -995l9552 9552c190,190 448,297 717,297l5602 0c560,0 1014,-454 1014,-1014 0,-560 -454,-1014 -1014,-1014l-446 0c903,-940 1460,-2216 1460,-3620 0,-2886 -2349,-5234 -5234,-5234 -2678,0 -4891,2023 -5197,4619l-5020 -5020c-866,-865 -2127,-1098 -3206,-701l7222 -7223c1186,-1186 1186,-3115 0,-4301l0 0c-593,-593 -1371,-889 -2151,-889 -778,0 -1557,296 -2150,889l-5021 5021c-305,-2597 -2518,-4619 -5197,-4619 -2677,0 -4890,2022 -5196,4619l-5021 -5021c-593,-593 -1372,-889 -2151,-889 -778,0 -1558,296 -2151,889 -1185,1186 -1185,3115 0,4301l7223 7223c-1079,-398 -2340,-164 -3205,701l-5021 5020c-306,-2596 -2519,-4619 -5197,-4619 -2886,0 -5234,2348 -5234,5234 0,1404 557,2680 1459,3620l-445 0c-560,0 -1014,454 -1014,1014 0,560 454,1014 1014,1014l5602 0c269,0 527,-107 717,-297l9553 -9552c395,-396 1037,-396 1433,0 395,395 395,1038 0,1434l-8378 8377c-190,190 -297,449 -297,717l0 8648 -4410 0c-560,0 -1014,453 -1014,1013 0,560 454,1014 1014,1014l4410 0 0 6049 -3397 0 0 -2353c0,-559 -453,-1014 -1013,-1014 -560,0 -1014,455 -1014,1014l0 2353 -3206 0c-560,0 -1014,454 -1014,1013 0,560 454,1015 1014,1015l3206 0 0 7088c0,560 454,1013 1014,1013 560,0 1013,-453 1013,-1013l0 -7088 3397 0 0 7062c0,560 454,1014 1013,1014 561,0 1015,-454 1015,-1014l0 -17288 7844 7844 0 9241c0,560 453,1015 1014,1015l10847 0c560,0 1014,-455 1014,-1015l0 -9241 7844 -7844 0 17288c0,560 455,1014 1014,1014 560,0 1014,-454 1014,-1014l0 -7062 3396 0 0 7088c0,560 454,1013 1014,1013 560,0 1014,-453 1014,-1013l0 -7088 3206 0c560,0 1014,-454 1014,-1015 0,-559 -454,-1013 -1014,-1013l-3206 0 0 -2353c0,-559 -454,-1014 -1014,-1014 -560,0 -1014,455 -1014,1014l0 2353 -3396 0 0 -6049 8630 0c560,0 1014,-454 1014,-1014 0,-560 -454,-1013 -1014,-1013l-8630 0 0 -8648c0,-268 -107,-526 -297,-716l-8378 -8378c-396,-395 -396,-1039 0,-1434 395,-396 1039,-396 1434,0z"/>
 </g>
</svg>
