<?xml version="1.0" encoding="UTF-8"?>
<!DOCTYPE svg PUBLIC "-//W3C//DTD SVG 1.1//EN" "http://www.w3.org/Graphics/SVG/1.1/DTD/svg11.dtd">
<!-- Creator: CorelDRAW X8 -->
<svg xmlns="http://www.w3.org/2000/svg" xml:space="preserve" width="59px" height="70px" version="1.1" style="shape-rendering:geometricPrecision; text-rendering:geometricPrecision; image-rendering:optimizeQuality; fill-rule:evenodd; clip-rule:evenodd"
viewBox="0 0 7353 8759"
 xmlns:xlink="http://www.w3.org/1999/xlink">
 <defs>
  <style type="text/css">
   <![CDATA[
    .fil0 {fill:#31549C;fill-rule:nonzero}
   ]]>
  </style>
 </defs>
 <g id="Слой_x0020_1">
  <metadata id="CorelCorpID_0Corel-Layer"/>
  <g>
   <path class="fil0" d="M1079 8073l959 0c95,0 171,-76 171,-171 0,-94 -76,-171 -171,-171l-788 0 0 -3246 5075 0 0 3246 -2666 0c-95,0 -171,77 -171,171 0,95 76,171 171,171l2837 0c94,0 171,-76 171,-171l0 -3588c0,-94 -77,-171 -171,-171l-5417 0c-95,0 -171,77 -171,171l0 3588c0,95 76,171 171,171zm2597 -1335c-19,0 -39,3 -57,10l-569 202 17 -603c1,-39 -11,-78 -35,-109l-368 -478 578 -171c38,-11 71,-35 93,-67l341 -498 341 498c22,32 55,56 93,67l579 171 -368 478c-24,31 -37,70 -36,109l17 603 -569 -202c-18,-7 -38,-10 -57,-10zm-803 628c19,0 38,-3 57,-10l746 -265 746 265c54,19 113,10 158,-23 46,-33 72,-87 71,-143l-22 -792 483 -627c34,-45 45,-104 27,-158 -17,-53 -60,-95 -114,-111l-760 -224 -448 -653c-32,-47 -84,-75 -141,-75 -56,0 -109,28 -141,75l-448 653 -760 224c-54,16 -96,58 -114,111 -17,54 -7,113 27,158l483 627 -22 792c-1,56 25,110 71,143 30,22 65,33 101,33zm-2309 1051l6447 0 0 -4618 -6447 0 0 4618zm-564 -6610l0 -31c6,-69 55,-130 126,-149 1,-1 2,-1 4,-1l6592 -1621c44,-11 91,-4 130,20 38,23 66,61 77,105 0,0 224,913 224,913 17,88 -36,174 -123,198 -1,0 -2,1 -4,1l-5220 1284c-1,0 0,0 0,0l5376 0c94,0 171,76 171,171l0 5891c0,95 -77,171 -171,171l-6789 0c-95,0 -171,-76 -171,-171l0 -5871 -218 -884c0,-2 0,-3 -1,-4 0,-1 0,-2 0,-3 0,-1 0,-1 0,-1 -2,-6 -2,-12 -3,-18zm6782 1061l229 228 0 -228 -229 0zm-1082 0l590 589 598 0 -590 -589 -598 0zm106 589l-590 -589 -903 0 590 589 903 0zm-2575 -589l589 589 599 0 -590 -589 -598 0zm3185 -2435l276 167 -54 -222 -222 55zm-5898 2057l295 -73 -367 -222 72 295zm633 -763l-581 143 713 432 513 -126 68 -17 -713 -432zm1816 -447l713 432 581 -143 -713 -431 -581 142zm2398 -589l713 432 581 -143 -713 -432 -581 143zm243 547l-713 -432 -877 216 713 432 877 -216zm-2398 590l-713 -432 -877 216 714 431 876 -215zm-1850 1040l-598 0 589 589 599 0 -590 -589zm1976 589l-589 -589 -903 0 590 589 902 0zm-2772 0l304 0 -304 -303 0 303z"/>
  </g>
 </g>
</svg>
