<?xml version="1.0" encoding="UTF-8"?>
<!DOCTYPE svg PUBLIC "-//W3C//DTD SVG 1.1//EN" "http://www.w3.org/Graphics/SVG/1.1/DTD/svg11.dtd">
<!-- Creator: CorelDRAW X8 -->
<svg xmlns="http://www.w3.org/2000/svg" xml:space="preserve" width="70px" height="67px" version="1.1" style="shape-rendering:geometricPrecision; text-rendering:geometricPrecision; image-rendering:optimizeQuality; fill-rule:evenodd; clip-rule:evenodd"
viewBox="0 0 4944 4772"
 xmlns:xlink="http://www.w3.org/1999/xlink">
 <defs>
  <style type="text/css">
   <![CDATA[
    .fil0 {fill:#31549C;fill-rule:nonzero}
   ]]>
  </style>
 </defs>
 <g id="Слой_x0020_1">
  <metadata id="CorelCorpID_0Corel-Layer"/>
  <path class="fil0" d="M4742 4570l-747 0 0 -350c0,-155 126,-281 281,-281l185 0c155,0 281,126 281,281l0 350 0 0zm-2299 -4570l-69 0c-252,1 -434,201 -434,476l0 176c0,108 28,205 78,282 -345,41 -577,262 -577,565l0 437 -141 0c-55,0 -101,45 -101,101l0 504c0,55 46,100 101,100l252 0 0 374 -71 0c-190,0 -345,155 -345,345l0 234c0,75 24,145 65,202 -59,32 -111,76 -152,130 -39,-51 -88,-93 -143,-125 35,-51 56,-114 56,-181l0 -286c0,-176 -143,-319 -319,-319l-110 0c-191,0 -346,155 -346,345l0 234c0,75 25,145 66,202 -151,82 -253,241 -253,424l0 451c0,56 45,101 101,101l4742 0c55,0 101,-45 101,-101l0 -451c0,-179 -99,-336 -244,-419 35,-51 56,-114 56,-181l0 -286c0,-176 -143,-319 -319,-319l-110 0c-191,0 -346,155 -346,345l0 234c0,75 24,145 66,202 -60,32 -112,76 -153,130 -39,-51 -87,-93 -143,-125 36,-51 57,-114 57,-181l0 -286c0,-176 -144,-319 -320,-319l-110 0c-39,0 -78,7 -113,19l0 -393 252 0c55,0 101,-45 101,-100l0 -504c0,-56 -46,-101 -101,-101l-141 0 0 -437c0,-303 -232,-524 -577,-565 50,-77 78,-174 78,-282l0 -176c0,-275 -182,-475 -434,-476zm604 4220c0,-155 126,-281 281,-281l185 0c155,0 281,126 281,281l0 350 -747 0 0 -350 0 0zm-949 0c0,-155 126,-281 281,-281l185 0c155,0 281,126 281,281l0 350 -747 0 0 -350 0 0zm-948 0c0,-155 126,-281 281,-281l185 0c155,0 281,126 281,281l0 350 -747 0 0 -350 0 0zm-948 0c0,-155 126,-281 281,-281l184 0c155,0 281,126 281,281l0 350 -746 0 0 -350zm187 -860c0,-79 65,-144 144,-144l110 0c65,0 118,53 118,118l0 286c0,65 -53,118 -118,118l-110 0c-79,0 -144,-65 -144,-144l0 -234zm948 0c0,-79 65,-144 144,-144l111 0c64,0 117,53 117,118l0 286c0,65 -52,118 -117,118l-111 0c-79,0 -144,-65 -144,-144l0 -234zm949 234l0 -234c0,-79 64,-144 144,-144l110 0c65,0 118,53 118,118l0 286c0,65 -53,118 -118,118l-110 0c-80,0 -144,-65 -144,-144zm777 -953l0 577c-19,44 -30,92 -30,142l0 234c0,75 24,145 65,202 -59,32 -111,76 -152,130 -39,-51 -88,-93 -143,-125 35,-51 56,-114 56,-181l0 -286c0,-176 -143,-319 -319,-319l-110 0c-191,0 -346,155 -346,345l0 234c0,75 25,145 66,202 -60,32 -111,76 -152,130 -39,-51 -88,-93 -144,-125 36,-51 57,-114 57,-181l0 -286c0,-117 -63,-219 -157,-275l0 -418 1309 0 0 0zm-1662 -503l2015 0 0 302 -2015 0 0 -302zm242 -639c0,-221 184,-336 393,-364l287 452c19,29 51,47 85,47 35,0 67,-18 85,-47l288 -452c209,28 393,143 393,364l0 437 -176 0 0 -258c0,-56 -45,-101 -101,-101 -55,0 -101,45 -101,101l0 258 -775 0 0 -258c0,-56 -46,-101 -101,-101 -56,0 -101,45 -101,101l0 258 -176 0 0 -437zm498 -1023c0,-137 73,-275 235,-275l65 0c162,0 234,138 234,275l0 176c0,137 -72,275 -234,275l-65 0c-162,0 -235,-138 -235,-275l0 -176zm406 652l-139 217 -138 -217 277 0zm831 2088l110 0c65,0 118,53 118,118l0 286c0,65 -53,118 -118,118l-110 0c-79,0 -144,-65 -144,-144l0 -234c0,-79 65,-144 144,-144zm805 144c0,-79 64,-144 144,-144l110 0c65,0 117,53 117,118l0 286c0,65 -52,118 -117,118l-110 0c-80,0 -144,-65 -144,-144l0 -234z"/>
 </g>
</svg>
