<?xml version="1.0" encoding="UTF-8"?>
<!DOCTYPE svg PUBLIC "-//W3C//DTD SVG 1.1//EN" "http://www.w3.org/Graphics/SVG/1.1/DTD/svg11.dtd">
<!-- Creator: CorelDRAW X8 -->
<svg xmlns="http://www.w3.org/2000/svg" xml:space="preserve" width="117px" height="209px" version="1.1" style="shape-rendering:geometricPrecision; text-rendering:geometricPrecision; image-rendering:optimizeQuality; fill-rule:evenodd; clip-rule:evenodd"
viewBox="0 0 374 668"
 xmlns:xlink="http://www.w3.org/1999/xlink">
 <defs>
  <style type="text/css">
   <![CDATA[
    .str0 {stroke:#FEFEFE;stroke-width:12.9328}
    .fil0 {fill:none}
   ]]>
  </style>
 </defs>
 <g id="Слой_x0020_1">
  <metadata id="CorelCorpID_0Corel-Layer"/>
  <g id="_3150837897776">
   <path class="fil0 str0" d="M327 589c19,1 35,17 35,37l0 0c0,20 -17,36 -37,36l-276 0c-20,0 -37,-16 -37,-36l0 0c0,-18 13,-33 30,-36 4,-41 25,-78 56,-101 -1,-1 -2,-1 -2,-2 -3,-3 -7,-8 -12,-15 -5,-7 -10,-15 -15,-24 -5,-9 -10,-19 -14,-29 -4,-9 -7,-18 -10,-24 -2,-7 -4,-11 -4,-14 0,-2 2,-3 6,-6 4,-3 12,-7 19,-13 23,-20 55,-63 68,-89 3,-6 6,-11 9,-16 2,-6 4,-13 5,-16 1,-4 1,0 1,-1 -1,0 -25,6 -34,7 -5,0 -10,0 -15,0 -5,0 -10,0 -14,0 -4,0 -7,0 -11,1 -4,1 -9,2 -13,3 -5,2 -9,4 -13,5 -4,1 -7,2 -11,2 -3,0 -7,-1 -11,-3 -4,-2 -9,-6 -12,-11 -4,-5 -7,-11 -8,-18 -1,-6 -1,-12 1,-18 1,-6 3,-11 8,-16 5,-4 12,-9 19,-14 6,-5 13,-9 19,-14 6,-4 12,-8 17,-13 5,-5 9,-10 12,-15 3,-5 5,-10 6,-15 2,-5 3,-9 4,-14 2,-4 4,-9 6,-13 1,-3 3,-6 5,-10 3,-4 8,-9 11,-13 4,-3 7,-5 8,-16 1,-5 0,-49 4,-48 2,1 4,2 6,3 3,2 6,4 8,7 3,2 4,5 7,8 2,3 5,6 8,10 2,3 4,7 6,11 3,3 6,7 7,1 1,-7 1,-24 1,-32 1,-9 2,-9 9,-8 6,1 19,3 31,6 13,4 25,9 37,15 11,6 22,12 33,21 10,9 22,19 31,31 10,11 19,23 26,38 7,14 13,30 17,45 4,15 7,29 8,42 2,12 3,24 3,32 1,9 1,14 1,17 0,2 -1,2 -8,6 -6,3 -19,9 -26,13 -6,3 -6,4 1,4 7,0 21,1 28,1 7,0 7,0 6,5 -2,5 -5,15 -9,25 -4,9 -8,19 -11,26 -3,8 -6,13 -9,16 -3,3 -7,4 -11,4 -4,0 -8,-1 -11,2 0,0 -33,95 -34,99 0,6 1,13 2,16 1,4 1,4 -3,7 -2,3 -8,7 -11,9 31,24 53,61 57,102z"/>
   <path class="fil0 str0" d="M194 55c5,1 11,3 16,4 5,2 10,3 15,6 11,4 22,10 31,17 10,8 19,16 27,26 4,5 8,10 11,14 3,5 5,8 8,12 5,10 9,21 13,32 3,12 6,23 8,36 2,10 3,21 3,32 1,5 1,9 1,13"/>
   <line class="fil0 str0" x1="327" y1="589" x2="89" y2= "589" />
   <line class="fil0 str0" x1="270" y1="487" x2="130" y2= "487" />
   <path class="fil0 str0" d="M142 243c8,-4 16,-8 22,-10 5,-3 9,-5 13,-9 4,-3 8,-8 11,-14 3,-5 5,-11 6,-16"/>
   <path class="fil0 str0" d="M158 135c-2,-2 -3,-4 -5,-5 -1,-2 -3,-3 -5,-3 -2,-1 -4,-2 -6,-2 -2,0 -4,0 -6,0 -2,1 -3,2 -5,2 -1,1 -2,2 -3,3 -1,1 -2,2 -3,4 -1,1 -2,2 -2,3 -1,1 -1,3 -2,4"/>
   <path class="fil0 str0" d="M44 193c-5,3 -10,7 -14,10 -4,4 -6,9 -6,13 0,3 1,7 2,10"/>
  </g>
 </g>
</svg>
