<?xml version="1.0" encoding="UTF-8"?>
<!DOCTYPE svg PUBLIC "-//W3C//DTD SVG 1.1//EN" "http://www.w3.org/Graphics/SVG/1.1/DTD/svg11.dtd">
<!-- Creator: CorelDRAW X8 -->
<svg xmlns="http://www.w3.org/2000/svg" xml:space="preserve" width="247px" height="204px" version="1.1" style="shape-rendering:geometricPrecision; text-rendering:geometricPrecision; image-rendering:optimizeQuality; fill-rule:evenodd; clip-rule:evenodd"
viewBox="0 0 1671 1383"
 xmlns:xlink="http://www.w3.org/1999/xlink">
 <defs>
  <style type="text/css">
   <![CDATA[
    .fil1 {fill:#FEFEFE}
    .fil0 {fill:#FEFEFE;fill-rule:nonzero}
   ]]>
  </style>
 </defs>
 <g id="Слой_x0020_1">
  <metadata id="CorelCorpID_0Corel-Layer"/>
  <g id="_3150830128368">
   <path class="fil0" d="M1505 473c-22,0 -42,9 -57,24 -14,14 -23,34 -23,56 0,22 9,42 23,56 15,14 35,23 57,23 22,0 42,-9 56,-23 14,-14 23,-34 23,-56 0,-22 -9,-42 -23,-56 -14,-15 -34,-24 -56,-24zm-76 4c19,-19 46,-31 76,-31 29,0 56,12 75,31 19,20 31,46 31,76 0,29 -12,56 -31,75 -19,20 -46,32 -75,32 -30,0 -57,-12 -76,-32 -19,-19 -31,-46 -31,-75 0,-30 12,-56 31,-76zm-1262 -4c-22,0 -42,9 -57,24 -14,14 -23,34 -23,56 0,22 9,42 24,56 14,14 34,23 56,23 22,0 41,-9 56,-23 14,-14 23,-34 23,-56 0,-22 -9,-42 -23,-56 -15,-15 -34,-24 -56,-24zm-76 4c20,-19 46,-31 76,-31 29,0 56,12 75,31 19,20 31,46 31,76 0,29 -12,56 -31,75 -19,20 -46,32 -75,32 -30,0 -56,-12 -76,-32 -19,-19 -31,-46 -31,-75 0,-30 12,-56 31,-76zm1137 -173c-35,0 -66,14 -88,37 -23,22 -37,54 -37,88 0,35 14,66 37,88 22,23 53,37 88,37 34,0 66,-14 88,-37 23,-22 37,-54 37,-88 0,-34 -14,-65 -37,-88 -22,-23 -54,-37 -88,-37zm-108 17c28,-27 66,-44 108,-44 42,0 80,17 108,45 27,27 44,65 44,107 0,42 -17,80 -45,108 -27,27 -65,44 -107,44 -42,0 -80,-17 -108,-44 -27,-28 -44,-66 -44,-108 0,-42 17,-80 44,-108zm538 826l-172 0 0 -305c0,-23 -3,-45 -9,-66 -6,-22 -16,-44 -27,-63l-9 -15 17 -5c7,-2 15,-4 22,-6 8,-1 16,-2 25,-2 46,0 87,19 117,49 31,30 49,72 49,118l0 295 -13 0zm-145 -28l131 0 0 -267c0,-38 -16,-73 -41,-99 -25,-25 -60,-40 -98,-40 -7,0 -14,0 -20,1 -1,0 -2,1 -3,1 9,17 16,35 21,54 7,23 10,48 10,73l0 277zm-1070 -815c-34,0 -65,14 -88,37 -23,23 -37,54 -37,88 0,34 14,66 37,88 23,23 54,37 88,37 35,0 66,-14 89,-37 22,-22 36,-54 36,-88 0,-34 -14,-66 -36,-88 -23,-23 -54,-37 -89,-37zm-107 18c27,-28 65,-45 107,-45 42,0 80,17 108,45 27,27 45,65 45,107 0,42 -18,80 -45,108 -28,27 -66,44 -108,44 -41,0 -80,-17 -107,-44 -28,-28 -45,-66 -45,-108 0,-42 17,-80 45,-107zm-169 363c8,0 16,1 24,2 7,2 15,3 22,6l17 5 -8 15c-12,19 -21,40 -28,63 -6,21 -9,43 -9,66l0 305 -185 0 0 -295c0,-46 19,-88 49,-118 30,-30 72,-49 118,-49zm19 29c-6,-1 -12,-1 -19,-1 -39,0 -74,15 -99,40 -25,26 -41,60 -41,99l0 267 131 0 0 -277c0,-25 4,-50 10,-74 5,-18 12,-36 21,-53 -1,0 -2,-1 -3,-1zm649 -687c-52,0 -100,22 -134,56 -35,35 -56,83 -56,136 0,52 21,100 56,135 34,35 82,56 134,56 53,0 101,-22 136,-56 34,-35 56,-83 56,-135 0,-53 -22,-101 -56,-135 -35,-35 -83,-57 -136,-57zm-154 37c40,-39 94,-64 154,-64 61,0 115,25 155,64 39,40 64,94 64,155 0,60 -25,115 -64,154 -40,40 -94,64 -155,64 -60,0 -114,-24 -154,-64 -39,-39 -64,-94 -64,-154 0,-60 25,-115 64,-155zm768 1191l-255 0 0 -456c0,-28 -4,-55 -10,-81 -7,-29 -18,-55 -31,-81l-7 -15 16 -4c10,-3 21,-6 32,-8 11,-2 22,-3 34,-3 65,0 123,27 166,69 43,43 69,102 69,166l0 413 -14 0zm-228 -28l215 0 0 -385c0,-57 -24,-109 -61,-146 -38,-38 -90,-61 -147,-61 -10,0 -20,1 -30,2 -4,1 -9,2 -13,3 11,23 19,46 25,71 7,28 11,58 11,88l0 428zm-744 -428l0 456 -269 0 0 -413c0,-64 27,-123 70,-166 42,-42 101,-69 166,-69 11,0 23,1 34,3 11,2 21,5 32,8l15 4 -7 15c-13,25 -23,52 -30,81 -7,26 -11,53 -11,81zm-27 428l0 -428c0,-30 4,-60 11,-88 6,-25 15,-48 25,-71 -4,-1 -8,-2 -13,-3 -9,-1 -19,-2 -29,-2 -58,0 -110,23 -147,61 -38,37 -61,89 -61,146l0 385 214 0zm78 128l615 0 0 -556c0,-85 -34,-162 -90,-217 -56,-56 -133,-90 -218,-90 -84,0 -161,34 -217,90 -55,55 -90,132 -90,217l0 556zm629 28l-656 0 0 -584c0,-92 37,-176 98,-237 61,-60 144,-98 236,-98 93,0 176,38 237,98 61,61 98,145 98,237l0 584 -13 0z"/>
   <polygon class="fil1" points="425,25 459,25 459,58 492,58 492,92 459,92 459,125 425,125 425,92 392,92 392,58 425,58 "/>
   <rect class="fil1" x="221" y="274" width="31.1542" height="33.8083"/>
   <rect class="fil1" x="1165" y="150" width="31.1542" height="33.8083"/>
   <rect class="fil1" x="1440" y="312" width="31.1542" height="33.8083"/>
  </g>
 </g>
</svg>
