<?xml version="1.0" encoding="UTF-8"?>
<!DOCTYPE svg PUBLIC "-//W3C//DTD SVG 1.1//EN" "http://www.w3.org/Graphics/SVG/1.1/DTD/svg11.dtd">
<!-- Creator: CorelDRAW X8 -->
<svg xmlns="http://www.w3.org/2000/svg" xml:space="preserve" width="153px" height="66px" version="1.1" style="shape-rendering:geometricPrecision; text-rendering:geometricPrecision; image-rendering:optimizeQuality; fill-rule:evenodd; clip-rule:evenodd"
viewBox="0 0 17766 7611"
 xmlns:xlink="http://www.w3.org/1999/xlink">
 <defs>
  <style type="text/css">
   <![CDATA[
    .fil0 {fill:white}
    .fil1 {fill:white;fill-rule:nonzero}
   ]]>
  </style>
 </defs>
 <g id="Слой_x0020_1">
  <metadata id="CorelCorpID_0Corel-Layer"/>
  <g id="_3150830151280">
   <path class="fil0" d="M1902 6154c1,5 1,8 2,11 1,8 1,10 -2,23 -4,12 -11,16 -14,12 -4,-3 -6,-8 1,-21 3,-5 6,-11 9,-16 1,-3 3,-6 4,-9zm97 -119c-4,8 -8,16 -13,23 -14,-32 6,-34 -20,-19 -1,24 -5,39 -6,64 -2,3 -4,7 -6,11 1,3 3,7 4,10 3,-4 5,-7 7,-11 8,-7 22,-26 44,-58 -3,-7 -6,-14 -10,-20zm122 -234c-25,19 -27,22 -7,44 6,6 16,-15 17,-24 0,-7 -4,-24 -10,-20zm650 -1302c-17,63 -22,68 -73,191 2,11 -12,22 -10,32 -17,45 -38,86 -56,130 2,10 -23,26 -21,38 -8,18 -48,75 -71,136 -42,109 -53,184 -116,248 12,29 2,18 2,41 -45,40 -91,197 -137,301 -18,28 -12,30 -33,25 -32,-28 -114,192 -128,232 -9,23 -44,70 -66,123 -16,42 -39,59 -59,123 1,10 2,20 2,31 -8,8 -16,16 -24,25 -5,10 -48,86 -48,86 -200,370 -234,335 -83,9 4,-7 8,-15 12,-23 17,-13 7,-3 20,-35 15,17 16,22 28,13 14,-11 14,-7 16,-28 5,-42 -7,-41 14,-109 17,-85 102,-226 137,-304 14,-18 21,-51 35,-69 51,-115 132,-267 246,-480 114,-214 228,-427 307,-582 42,-79 76,-128 106,-154zm-1450 2532c7,19 16,5 14,35 -1,18 -1,13 -15,22 -4,3 -9,7 -15,7 -16,1 -20,-5 -17,-18 3,-12 6,-24 9,-36 6,-13 13,-35 24,-10zm56 -369c-2,6 -4,11 -15,40 -4,12 -17,-22 -15,-34 1,-17 28,-61 37,-74 7,-10 0,47 -7,68zm182 -360c-7,-13 -32,29 -23,42 7,10 30,26 30,18 4,-38 15,-16 -7,-60zm128 -300c-12,10 -17,27 -21,36 -8,21 10,41 17,35 12,-11 18,-26 22,-37 5,-18 -10,-41 -18,-34zm281 -616c7,-15 8,-19 11,-42 -4,6 -7,12 -12,18 -2,-6 -6,-11 -9,-16 -41,119 -75,127 -118,215 -17,35 0,51 23,20 40,-55 38,-54 70,-79 32,-26 57,-33 37,-67 -10,-16 -14,-21 -2,-49zm-18 -92c-21,-2 -6,2 -31,-15 -3,5 -7,11 -11,18 10,17 19,33 29,50 14,-43 9,-19 13,-53zm163 -165c29,-68 23,-21 14,-83 -14,11 -29,23 -43,36 10,16 19,32 29,47zm92 -170c-34,18 -34,8 -76,54 7,9 13,20 20,30 20,2 6,-2 30,14 11,-16 23,-33 35,-51 -4,-15 -6,-32 -9,-47zm228 -397c-16,-17 -5,16 -22,2 -24,-19 8,45 8,45 15,-39 33,-25 14,-47zm137 -202c-28,27 -49,66 -91,108 11,7 22,5 15,27 -10,17 -21,32 -18,35 2,5 8,5 21,-4 35,-44 53,-83 88,-126 28,-34 35,-88 -15,-40zm-992 1579c-13,23 -18,15 -24,8 -28,-29 -33,-3 -53,33 -30,53 -60,109 -88,164 -19,38 -38,80 -57,118 -22,44 -36,49 -18,-9 21,-68 48,-133 75,-199 28,-69 59,-143 89,-209 91,-194 205,-378 319,-560 36,45 39,70 74,64 -52,-87 -53,-104 -4,-184 92,-151 185,-295 284,-427 47,-64 89,-112 114,-138 -4,-28 61,-62 63,-90 70,13 95,-132 167,-206 59,-60 87,-105 152,-164 60,-56 184,-199 109,-75 -46,62 -90,122 -131,180 -34,48 -41,56 -21,81 10,13 32,-9 54,-42 117,-176 374,-553 439,-540 -19,27 -37,52 -56,78 -59,89 -294,437 -323,524 -72,146 -62,123 -134,272 -3,-5 -91,166 -94,161 -52,58 -49,27 -96,60 0,47 8,79 -23,152 -80,182 -258,452 -325,626 -30,77 -110,111 -102,170 -47,144 -167,368 -286,591 -119,223 -238,446 -313,595 -36,-77 40,-93 18,-135 -15,-29 -11,-20 -5,-55 7,-44 26,-74 31,-118 7,-58 15,-83 55,-199 4,-13 15,-50 -9,-29 -4,3 -13,7 -19,4 -9,-4 20,-78 27,-97 23,-68 77,-174 133,-291 60,-125 145,-276 187,-354 14,-27 28,-53 22,-66 -14,-32 -13,-1 -49,-1 -39,0 -46,7 -51,43 -6,34 -6,64 -10,97 -5,-66 -46,-63 -61,-45 -24,28 -4,75 -20,87 -27,19 -6,-40 -55,16 5,10 10,19 14,29 1,19 2,22 5,34 9,25 9,22 -4,46zm824 -2108c-17,34 8,28 22,11 30,-19 277,-275 352,-329 17,-13 26,-34 47,-40 -8,31 -3,16 -31,53 -47,58 -220,224 -336,374 -36,48 -67,94 -86,135 -2,-4 -4,-7 -6,-11 5,-32 6,-19 -3,-53 -15,2 -15,3 -29,-2 -6,14 -13,27 -19,41 29,68 22,77 -50,159 -6,30 -14,30 -34,64 -5,-7 -9,-16 -13,-23 -3,3 -6,7 -9,10 -2,-4 -3,-8 -6,-11 13,-29 0,-34 4,-45 0,0 39,-25 47,-40 -2,-4 -4,-7 -6,-12 -35,34 -44,27 -79,60 4,26 20,84 21,115 -75,-13 -239,420 -324,291 11,-30 7,-13 10,-37 31,-29 56,-51 74,-102 19,-7 17,13 45,-19 0,-44 31,-109 21,-175 -5,6 -11,14 -17,22 -12,83 -62,152 -155,276 -23,30 -42,35 -10,65 11,10 18,10 28,10 40,-2 29,39 12,65 -8,12 -16,24 -24,35 -12,70 -155,242 -235,327 -29,31 -26,43 -43,7 -30,-65 -25,-100 -6,-164 22,-79 52,-144 119,-238 3,-65 28,-55 59,-113 32,-64 46,-21 37,1 -12,37 8,27 26,7 11,-13 23,-30 35,-47 8,-40 53,-69 46,-130 -14,-5 -1,17 -18,-7 -12,15 -23,18 -34,19 -13,1 -24,1 -8,-22 54,-78 74,-115 132,-168 10,-30 32,-70 51,-84 16,-12 68,-29 77,-34 49,-27 62,-109 85,-141 32,-41 118,-118 157,-174 -1,2 -3,4 -5,5 -16,13 -61,10 -73,16 0,0 -46,31 -49,33 -67,46 -122,215 -194,234 -19,5 -40,-10 -66,4 -30,121 -128,145 -161,239 -21,-19 -14,24 -45,41 -13,8 -23,9 -7,-7 15,-16 17,8 14,-30 0,-22 72,-78 63,-109 29,-47 19,-27 53,-87 19,-34 30,17 55,-28 12,-84 55,-95 110,-145 0,0 71,-113 115,-139 119,-73 245,-192 357,-254 74,-39 170,-110 293,-167 45,-21 82,-28 93,-24 -89,72 -168,146 -244,218 -10,9 -29,-1 -39,26 3,12 -6,14 -2,27 -63,49 -125,135 -179,152 11,46 4,35 -15,69zm-69 -81c1,-2 2,-3 2,-4 41,-65 153,-132 207,-176 30,-48 -112,55 -193,134 -9,13 -8,31 -16,46zm-1 125c-5,-7 -23,13 -17,20 10,11 1,-2 15,1 4,0 6,15 6,11 4,-20 10,-9 -4,-32zm-110 169c-30,16 -29,-14 -25,31 -3,3 -5,7 -9,11 3,3 6,6 8,10 10,-13 21,-26 32,-40 -2,-4 -4,-7 -6,-12zm-89 90c27,31 6,25 36,15 0,-22 -2,0 1,-22 -3,-8 -8,-15 -12,-23 -9,10 -17,20 -25,30zm-86 -33c-11,14 -22,26 -33,40 9,39 1,30 9,70 35,11 26,52 41,52 18,9 26,9 44,5 -5,-24 -5,-28 -18,-59 -36,-7 -35,-14 -55,-53 15,-35 11,-22 12,-55zm75 192c-5,0 -30,15 -7,25 9,5 8,-7 12,-16 1,-4 -2,-10 -5,-9zm-68 4c-17,29 -17,32 -27,56 15,4 1,2 16,1 14,-2 12,-2 30,-19 -6,-13 -12,-26 -19,-38zm-256 117c-3,5 -6,11 -13,24 -4,2 -5,-5 -6,-15 5,-6 9,-14 14,-21 16,-23 12,-3 5,12zm70 228c-9,-9 -19,-2 -31,22 2,19 6,29 12,28 15,-29 15,-25 19,-50zm-141 72c13,37 28,55 49,10 10,-20 18,-51 18,-82 0,-31 -23,-35 -40,-11 -7,10 -13,19 -20,29 -20,29 -19,22 -7,54zm-39 36c-8,12 -7,17 -2,31 7,18 10,12 17,1 7,-9 5,-18 0,-29 -6,-13 -9,-12 -15,-3zm-23 43c-10,-6 -28,-13 -32,25 -4,35 -6,75 5,73 17,-3 26,-17 48,-48 2,-8 8,-33 -21,-50zm-116 261c4,24 2,53 0,75 -1,19 -12,45 -20,67 -14,37 -26,38 -33,0 -13,-76 -1,-82 18,-129 6,-16 28,-65 35,-13zm-97 260c2,9 7,20 -3,38 -8,12 -11,30 -18,11 -4,-10 -3,-15 -1,-25 2,-13 6,-25 10,-35 9,-19 11,1 12,11zm1377 99c7,-15 15,-31 22,-46 -5,-5 -11,-10 -17,-15 -2,4 -3,8 -5,12 -14,16 -144,234 -185,263 -7,17 5,30 -14,51 -5,7 -37,11 -41,15 -19,18 -20,39 -33,62 -9,20 -42,67 -56,37 -8,-19 11,-57 29,-84 91,-136 246,-444 297,-548 3,3 5,5 8,8 3,30 -1,19 15,47 14,-7 13,-6 28,-7 3,-15 5,-29 8,-44 -48,-64 -33,-64 18,-154 0,-30 6,-33 18,-71 4,3 6,9 11,11 15,6 20,-36 20,22 0,12 8,14 8,23 0,0 -32,35 -36,52 3,3 6,6 9,9 25,-43 35,-39 61,-81 -10,-23 -39,-71 -47,-99 35,-34 82,-218 142,-318 31,-53 49,-81 96,-55 -4,31 -4,14 -1,37 -23,37 -41,66 -46,118 -17,13 -19,-6 -39,32 11,40 -4,110 22,168 3,-8 6,-17 10,-26 -8,-89 30,-176 101,-350 -43,-36 -43,-14 -75,-10 -20,-5 -15,-24 -14,-34 8,-23 17,-46 25,-69 13,-37 68,-180 111,-296 30,-82 60,-152 86,-234 12,-35 25,-55 34,12 5,65 5,86 -1,131 -4,-9 -15,-18 -19,-26 -11,-23 -31,-33 -17,31 15,72 26,20 35,65 2,114 -6,188 -58,326 18,62 -10,61 -30,123 6,23 2,0 5,24 -44,-33 -1,2 -40,-13 2,-23 5,-9 -4,-24 -18,8 -30,43 -44,81 1,33 -26,70 -20,114 4,25 20,21 34,4 13,-14 28,-14 39,-19 -40,108 -48,149 -94,222 -2,31 -14,74 -28,94 -12,16 -19,68 -27,76 -23,41 -27,83 -51,120 -118,268 -320,596 -558,768 -30,22 -37,14 -11,-13 76,-77 128,-151 187,-237 7,-11 27,-8 30,-37 -6,-10 -12,-20 -19,-31 47,-66 99,-161 146,-194 -7,-9 -16,-16 -25,-23zm-70 21c9,-10 8,-28 8,-42 0,-4 -6,-10 -8,-7 -9,9 -17,22 -17,35 0,7 12,19 17,14zm134 -132c9,8 25,-25 15,-30 -16,-10 0,1 -18,5 -5,0 -11,-16 -11,-11 2,25 -10,16 14,36zm78 -192c25,-24 31,4 16,-36 2,-4 4,-8 6,-12 -3,-3 -6,-5 -9,-8 -7,16 -14,31 -21,48 3,3 6,5 8,8zm63 -111c-32,-19 -12,-21 -37,-2 5,19 1,-1 3,20 6,7 12,12 18,18 5,-12 11,-24 16,-36zm89 2c7,-16 14,-32 21,-48 -17,-33 -8,-27 -25,-62 -35,2 -36,-39 -50,-34 -19,-2 -26,0 -43,10 11,21 11,24 31,49 36,-6 36,1 64,31 -6,36 -6,23 2,54zm-129 -149c3,-6 35,-31 7,-47 -12,16 -19,29 -16,38 4,3 6,6 9,9zm77 -29c9,-32 8,-35 11,-60 -14,1 0,-2 -14,4 -13,6 -11,6 -24,28 9,9 17,19 27,28zm214 -168c-2,-18 -4,-33 -2,-41 3,-12 10,-10 15,-5 4,6 1,12 -2,17 -3,10 -7,20 -11,29zm-119 -210c9,-10 16,-20 25,-30 -7,-7 -13,-14 -19,-21 -7,32 -8,28 -6,51zm131 -99c-29,-36 -35,-54 -48,-56 -13,4 -4,-2 -19,16 -12,22 -19,86 3,139 14,-7 13,-7 29,-5 11,-31 23,-62 35,-94zm14 -42c3,-9 6,-18 9,-27 -9,-12 -19,-23 -28,-35 -3,9 -6,19 -9,28 9,12 19,23 28,34zm-5 -64c17,-3 36,7 53,5 -3,-4 -7,-8 -9,-12 -3,-34 -12,-96 -24,-90 -16,8 -21,25 -34,59 4,13 9,26 14,38z"/>
   <path class="fil0" d="M15049 3123l569 0 0 4488 -569 0 0 -2876 0 0 0 -835 0 0 0 -777zm-1294 -77c473,0 854,389 854,855l0 3709 -569 0 0 -3708c0,-158 -124,-287 -285,-287 -158,0 -285,128 -285,285l1 3710 -569 0 0 -3708c0,-158 -124,-287 -285,-287 -158,0 -285,128 -285,285l1 3710 -570 0 0 -3710c0,-469 384,-854 854,-854 219,0 418,83 569,219 151,-136 351,-219 569,-219zm3759 2154c156,-147 252,-353 252,-587l0 -1490 -569 0 0 1525c0,158 -124,287 -285,287 -158,0 -284,-128 -284,-285l0 -1527 -569 0 0 1491c0,235 96,440 251,586 -155,146 -251,351 -251,586l0 1825 569 0 0 -1861c0,-157 126,-284 284,-284 161,0 285,128 285,286l0 1859 569 0 0 -1824c0,-234 -96,-440 -252,-587z"/>
   <path class="fil1" d="M358 3046l1329 0 0 140 -1329 0c-120,0 -218,98 -218,218l0 3847c0,60 24,115 64,154l0 1c39,39 94,63 154,63l3847 0c60,0 115,-24 154,-63l0 -1c39,-39 64,-94 64,-154l0 -2903 140 0 0 2903c0,99 -41,188 -105,253l0 0c-65,65 -155,105 -253,105l-3847 0c-98,0 -188,-40 -253,-105l0 0c-65,-65 -105,-154 -105,-253l0 -3847c0,-197 161,-358 358,-358z"/>
   <path class="fil0" d="M8895 5846l-279 0 0 1764 -569 0 0 -3710c0,-469 383,-854 853,-854 473,0 854,389 854,855l0 1090c0,218 -83,418 -219,570 136,152 219,352 219,570l0 1479 -569 0 0 -1479c0,-163 -131,-285 -290,-285zm290 -1944c0,-158 -124,-287 -285,-287 -158,0 -284,128 -284,285l0 1377 278 0c159,0 291,-119 291,-287l0 -1088zm1822 -287l0 3996 -569 0 0 -3996 -545 0 0 -569 1659 0 0 569 -545 0zm-4543 1662l569 0 0 -1375c0,-158 -124,-287 -285,-287 -158,0 -284,128 -284,285l0 1377zm569 569l-569 0 0 1764 -570 0 0 -3710c0,-469 384,-854 854,-854 473,0 854,389 854,855l0 3709 -569 0 0 -1764z"/>
   <path class="fil0" d="M3949 1437c-2,10 -6,19 -15,43 -5,12 -13,16 -19,11 -12,-10 -5,-23 1,-32 5,-10 13,-20 19,-30 16,-27 20,-29 14,8zm320 1567c-20,39 -21,62 -23,96 -11,-6 -22,-11 -33,-16 19,-40 12,-65 56,-80zm106 37c-23,6 -7,0 -32,15 6,3 11,6 16,9 5,-8 11,-16 16,-24zm-586 -356c-6,7 -12,14 -18,21 -5,-3 -10,-6 -16,-8 6,-7 12,-14 18,-22 5,3 10,6 16,9zm114 -109c-23,37 -18,48 -21,80 -5,-3 -10,-6 -16,-8 -10,-18 0,-6 -24,-27 15,-18 30,-35 44,-53 5,3 11,5 17,8zm432 186c-14,8 -28,18 -41,25 -6,-2 -11,-5 -16,-7 5,-8 11,-15 17,-22 13,1 26,3 40,4zm80 38c-23,6 -8,0 -33,15 5,3 11,5 16,7 6,-7 12,-15 17,-22zm-1163 -647c-26,-1 -7,1 -42,-7 35,-6 48,-21 42,7zm463 244c-45,24 -27,15 -61,15 -5,-3 -2,-9 19,-21 14,2 28,4 42,6zm-30 -43c-42,26 -6,19 -60,14 -7,-7 22,-19 28,-18 10,2 20,2 32,4zm42 5c-6,6 -12,13 -18,20 -16,-2 -23,-5 -19,-9 7,-7 13,-11 20,-14 7,1 12,-1 17,3zm478 206c4,29 17,33 13,66 -6,-3 -11,-5 -16,-8 3,-4 6,-7 9,-11 -23,-28 -26,-21 -22,-55 5,3 10,5 16,8zm214 85c-6,8 -11,15 -17,23 -5,-3 -10,-5 -16,-8 6,-7 12,-15 17,-22 5,2 10,5 16,7zm-677 -358c0,18 3,26 -19,43 -8,6 -30,-4 -29,-14 2,-16 20,-27 34,-36 4,-3 14,2 14,7zm66 -76c0,8 -8,15 -16,18 -4,1 -14,-2 -13,-7 1,-7 8,-14 16,-17 4,-2 14,2 13,6zm611 240c-6,7 -11,14 -17,21 -10,-17 -3,1 -7,-18 -5,-3 -11,-4 -16,-7 24,-2 7,-2 40,4zm-67 -76c-10,21 -19,41 -28,61 -6,-2 -11,-4 -16,-7 3,-4 6,-7 9,-10 -3,-27 4,-33 35,-44zm80 7c-24,21 -20,19 -42,25 9,-10 17,-21 26,-32 5,2 10,5 16,7zm-69 -46c-15,14 16,1 7,18 22,22 -40,-4 -40,-4 26,-15 10,-8 33,-14zm-1783 647c174,-161 348,-327 504,-473 160,-151 318,-292 484,-405 7,-5 78,-46 86,-51 -15,20 -30,38 -39,63 -22,60 -64,158 -87,252 19,-1 45,0 69,2 28,2 16,12 -2,11 -79,-4 -57,24 -96,84 45,34 38,7 38,44 -4,2 -75,35 -82,63 11,5 22,11 33,16 -32,35 -71,115 -84,163 -45,173 -137,470 -119,569 94,-71 301,-292 378,-368 130,-129 281,-268 373,-346 35,-29 133,-104 160,-122 -17,18 -31,65 -35,87 -10,55 -25,98 -32,151 12,-2 16,-2 36,-3 -20,39 -24,70 -18,83 -8,0 -24,-8 -35,-9 -112,446 -210,903 -245,1199 24,3 51,-67 50,-49 125,-132 138,-263 146,-227 42,-14 41,-105 77,-105 4,-35 11,-73 48,-126 6,-6 49,-104 49,-137 2,-46 -27,-12 -20,-44 61,14 40,-34 79,-71 -44,-130 51,-190 62,-329 50,6 8,11 48,-7 -49,-21 -33,9 -40,-35 14,0 -6,-71 18,-113 25,3 43,4 65,0 -7,-60 26,-72 50,-98 -2,-9 -45,-43 -45,-52 19,-16 37,-31 56,-47 -12,-11 -26,-23 -38,-34 17,-23 38,-49 59,-75 -6,-9 -13,-15 -19,-19 -23,-17 -20,-28 -14,-44 11,-29 20,-50 33,-71 -3,-9 -28,-7 -33,-14 -6,-8 -17,-29 -27,-35 -9,10 -16,16 -24,27 13,23 13,36 -1,52 -5,4 -16,17 -21,15 -14,-38 18,-23 -24,-41 35,-35 27,-44 33,-81 9,-7 22,-16 39,-28 44,-70 176,-201 197,-277 20,-2 11,-20 41,-3 15,-42 19,-68 15,-99 6,-15 13,-31 19,-47 5,3 9,7 13,10 -6,30 -2,28 -8,58 35,-47 87,-118 96,-152 32,-70 46,-68 33,-81 -11,-13 -9,-32 10,-61 44,-69 59,-102 110,-148 56,-83 154,-274 180,-351 -4,-3 -8,-5 -11,-8 2,-6 5,-10 8,-16 -8,-5 -16,-10 -23,-16 -15,-28 44,8 44,8 10,-20 21,-40 31,-60 -37,-1 -18,-21 -51,7 -4,-3 -8,-5 -11,-8 45,-47 12,-23 41,-59 8,-2 21,30 25,1 3,-20 -27,-12 -28,-31 26,-14 55,11 67,8 115,-250 233,-498 316,-764 39,-127 -17,-140 -83,-103 -157,65 -232,147 -298,164 -6,22 -6,20 -5,39 -31,18 -61,58 -95,74 -4,4 -7,8 -11,13 5,-20 4,-16 24,-47 -4,-1 -7,-4 -10,-6 -3,5 -7,9 -11,14 -40,8 -387,286 -468,352 -36,61 -126,83 -129,129 -36,50 -94,84 -111,122 -77,-47 -153,-90 -217,-131 18,81 119,165 59,227 30,19 11,32 20,32 -10,7 -22,11 -37,14 -48,72 -54,52 -21,86 -54,58 -34,7 -71,26 -58,28 -78,134 -139,157 -6,37 11,14 37,40 -37,21 0,15 -43,8 -49,67 -112,170 -166,274 -45,86 -97,205 -115,267 -16,-6 -32,-11 -49,-16 -37,-7 -68,-1 -98,13 -89,43 -200,118 -275,178 -48,37 -94,70 -123,100 25,21 -19,41 -33,54 -21,-17 -47,33 -94,73 -95,104 -177,195 -288,352 -34,48 -170,277 -157,362zm1848 -768c-82,-61 -217,-56 -265,-35 -49,36 -97,86 -142,127 9,8 17,14 40,28 26,-15 10,-9 33,-14 -12,23 -25,47 -38,71 -10,-6 -21,-10 -31,-16 -7,-12 -21,-26 -35,-39 -9,9 -19,17 -28,27 33,22 21,3 20,37 -33,-5 -53,1 -68,7 -59,54 -121,109 -180,164 50,-202 132,-418 129,-614 -20,-28 -42,-54 -82,-60 -14,-6 -32,-13 -53,-20 45,-48 91,-119 147,-183 136,-154 214,-242 403,-443 20,-22 57,-62 103,-110 39,32 113,83 105,113l72 45 32 -19c113,-37 183,-89 150,-147 -9,-9 -50,-33 -55,-40 -37,-44 -85,-85 -138,-124 21,-5 43,-26 69,-50 155,-146 350,-325 525,-456 17,-23 31,-35 47,-58 6,4 7,12 13,16 36,-20 98,-64 114,-81 12,-6 16,-8 19,2 -16,12 -65,38 -72,45 -15,13 -63,101 -110,193 -118,230 -236,459 -351,691 -152,309 -275,638 -372,940 0,1 -1,2 -1,3zm263 -369c-5,10 -9,20 -13,31 9,7 17,14 26,21 2,-5 5,-10 7,-16 -7,-12 -14,-24 -20,-36zm-560 -762c0,-9 18,8 22,16 2,5 -3,15 -8,12 -5,-3 -12,-9 -14,-28zm190 54c-12,19 -23,37 -34,56 4,3 8,6 12,9 3,-4 6,-9 9,-13 19,-7 6,0 28,-19 -5,-11 -10,-22 -15,-33zm636 353c-2,10 -5,18 -12,34 -7,18 -15,33 -23,22 -4,-7 -2,-22 8,-40 5,-8 11,-17 16,-25 17,-28 16,-24 11,9zm25 -260c-25,92 -30,33 2,105 4,-9 8,-17 12,-25 -8,-32 -6,-48 -14,-80zm7 -257c-10,25 -10,26 -10,47 7,-12 14,-23 21,-35 3,-7 9,-14 2,-21 -5,-5 -11,5 -13,9zm-15 -593c-18,30 -18,26 -21,46 10,-13 20,-26 31,-39 1,-11 -4,-10 -10,-7zm29 -20c16,12 14,3 25,-11 5,-6 31,-33 23,-39 -11,-8 -38,10 -46,17 -20,19 -13,24 -2,33zm128 -137c6,4 12,8 18,13 -4,4 -7,9 -11,13 -9,-20 -7,-8 -7,-26zm-654 837c-3,2 -6,4 -10,6 -10,12 -25,32 -25,32 21,-4 8,1 27,-9 -13,-3 13,-12 4,-20 2,-5 4,-8 4,-9zm106 16c-1,-6 -6,-9 -14,-6 -3,1 -10,11 -10,14 1,6 6,9 13,7 4,-1 12,-12 11,-15z"/>
  </g>
 </g>
</svg>
