<?xml version="1.0" encoding="UTF-8"?>
<!DOCTYPE svg PUBLIC "-//W3C//DTD SVG 1.1//EN" "http://www.w3.org/Graphics/SVG/1.1/DTD/svg11.dtd">
<!-- Creator: CorelDRAW X8 -->
<svg xmlns="http://www.w3.org/2000/svg" xml:space="preserve" width="170px" height="31px" version="1.1" style="shape-rendering:geometricPrecision; text-rendering:geometricPrecision; image-rendering:optimizeQuality; fill-rule:evenodd; clip-rule:evenodd"
viewBox="0 0 170000 30989"
 xmlns:xlink="http://www.w3.org/1999/xlink">
 <defs>
  <style type="text/css">
   <![CDATA[
    .fil0 {fill:white}
    .fil1 {fill:white;fill-rule:nonzero}
   ]]>
  </style>
 </defs>
 <g id="Слой_x0020_1">
  <metadata id="CorelCorpID_0Corel-Layer"/>
  <g id="_1829948731600">
   <path class="fil0" d="M56136 1254l3489 0 0 27517 -3489 0 0 -17634 -1 0 0 -5120 1 0 0 -4763zm-7936 -471c2898,0 5234,2381 5234,5241l0 22746 -3490 0 0 -22739c0,-970 -759,-1759 -1744,-1759 -973,0 -1745,784 -1745,1745l0 22753 -3489 0 0 -22739c0,-970 -759,-1759 -1745,-1759 -972,0 -1745,784 -1745,1745l1 22753 -3489 0 0 -22750c0,-2879 2350,-5237 5233,-5237 1342,0 2564,510 3488,1342 928,-833 2151,-1342 3491,-1342zm23048 13206c955,-899 1545,-2162 1545,-3599l0 -9136 -3489 0 0 9348c0,971 -760,1759 -1745,1759 -972,0 -1744,-783 -1744,-1744l0 -9363 -3490 0 0 9141c0,1441 591,2698 1541,3594 -950,898 -1541,2155 -1541,3596l0 11186 3490 0 0 -11409c0,-961 772,-1745 1744,-1745 985,0 1745,789 1745,1759l0 11395 3489 0 0 -11181c0,-1438 -590,-2700 -1545,-3601z"/>
   <path class="fil0" d="M18396 17951l-1710 0 0 10819 -3489 0 0 -22750c0,-2879 2351,-5237 5234,-5237 2898,0 5234,2381 5234,5241l0 6686c0,1333 -509,2563 -1343,3495 834,929 1343,2155 1343,3493l0 9072 -3490 0 2 -9074c0,-1000 -806,-1745 -1781,-1745zm1779 -11920c0,-970 -759,-1759 -1744,-1759 -972,0 -1745,784 -1745,1745l0 8445 1704 0c979,0 1785,-732 1785,-1759l0 -6672zm11175 -1759l0 24499 -3488 0 0 -24499 -3342 0 0 -3488 10173 0 0 3488 -3343 0zm-27860 10190l3488 0 0 -8431c0,-970 -759,-1759 -1745,-1759 -971,0 -1743,784 -1743,1745l0 8445zm3488 3489l-3488 0 0 10819 -3490 0 0 -22750c0,-2879 2350,-5237 5233,-5237 2900,0 5235,2381 5235,5241l0 22746 -3490 0 0 -10819z"/>
   <polygon class="fil0" points="79192,0 79639,0 79639,29041 79192,29041 "/>
   <g>
    <path class="fil1" d="M91710 8208c42,127 69,227 79,300 11,75 -3,130 -41,168 -40,35 -109,59 -207,67 -96,10 -233,13 -403,13 -180,0 -320,-1 -419,-7 -101,-6 -176,-17 -229,-32 -54,-16 -89,-38 -110,-67 -22,-27 -40,-64 -52,-110l-448 -1367 -2567 0 -430 1330c-14,50 -32,91 -56,123 -21,34 -59,60 -108,79 -51,20 -123,33 -216,40 -93,8 -215,11 -366,11 -162,0 -288,-6 -379,-16 -92,-11 -155,-36 -189,-76 -35,-41 -48,-98 -38,-172 11,-74 38,-170 79,-294l2098 -6042c19,-59 45,-108 73,-144 28,-38 72,-64 133,-84 63,-20 147,-33 257,-38 107,-6 251,-7 431,-7 206,0 372,1 493,7 124,5 220,18 288,38 68,20 116,48 147,86 29,39 55,91 75,158l2105 6036zm-3125 -4998l-4 0 -948 2896 1910 0 -958 -2896zm7936 -724c0,104 -4,193 -13,263 -10,72 -24,130 -40,173 -18,45 -39,75 -66,95 -28,21 -58,29 -91,29l-2257 0 0 5500c0,34 -11,65 -35,92 -23,26 -61,48 -113,66 -52,17 -124,31 -210,39 -88,10 -201,13 -338,13 -132,0 -244,-3 -334,-13 -90,-8 -162,-22 -214,-39 -51,-18 -89,-40 -113,-66 -22,-27 -33,-58 -33,-92l0 -6194c0,-148 37,-258 112,-330 76,-71 175,-107 299,-107l3236 0c69,0 121,44 157,131 34,88 53,234 53,440zm4827 5694c0,101 -3,186 -12,256 -9,69 -22,124 -40,165 -18,44 -39,75 -66,94 -25,20 -55,29 -86,29l-3415 0c-115,0 -212,-34 -291,-103 -79,-68 -119,-179 -119,-334l0 -5935c0,-155 40,-266 119,-334 79,-69 176,-103 291,-103l3398 0c31,0 61,9 85,27 24,18 45,48 63,92 16,45 31,100 39,168 9,71 13,157 13,263 0,98 -4,181 -13,250 -8,69 -21,124 -39,166 -18,43 -39,74 -63,93 -24,20 -54,29 -85,29l-2429 0 0 1659 2047 0c33,0 61,9 86,29 27,19 48,49 67,90 18,39 30,93 39,163 10,69 13,151 13,248 0,103 -3,187 -13,253 -9,67 -21,120 -39,160 -19,42 -40,70 -67,86 -25,18 -53,28 -86,28l-2047 0 0 1917 2446 0c32,0 61,9 86,28 27,20 48,51 66,93 18,42 31,98 40,166 9,70 12,154 12,257zm6538 355c0,35 -11,66 -34,96 -24,26 -61,50 -114,67 -52,17 -121,31 -209,42 -86,10 -198,16 -329,16 -136,0 -249,-6 -339,-16 -89,-11 -158,-25 -210,-42 -51,-17 -86,-41 -110,-67 -23,-30 -34,-61 -34,-96l0 -2753 -2553 0 0 2753c0,35 -11,66 -32,96 -20,26 -58,50 -110,67 -52,17 -122,31 -210,42 -86,10 -200,16 -334,16 -133,0 -245,-6 -334,-16 -90,-11 -160,-25 -212,-42 -52,-17 -89,-41 -113,-67 -24,-30 -34,-61 -34,-96l0 -6431c0,-35 10,-66 34,-96 24,-27 61,-49 113,-68 52,-18 122,-30 212,-42 89,-10 201,-15 334,-15 134,0 248,5 334,15 88,12 158,26 210,42 52,19 90,41 110,68 21,30 32,61 32,96l0 2505 2553 0 0 -2505c0,-35 11,-66 34,-96 24,-27 59,-49 110,-68 52,-16 121,-30 210,-42 90,-10 203,-15 339,-15 131,0 243,5 329,15 88,12 157,24 209,42 53,19 90,41 114,68 23,30 34,61 34,96l0 6431zm6010 -6052c0,101 -3,187 -13,262 -8,72 -21,128 -39,172 -18,45 -40,77 -66,97 -26,21 -57,32 -86,32l-1703 0 0 5489c0,35 -11,66 -34,96 -23,26 -61,50 -113,67 -52,17 -124,31 -214,42 -89,10 -200,16 -334,16 -132,0 -244,-6 -334,-16 -90,-11 -162,-25 -214,-42 -52,-17 -89,-41 -113,-67 -22,-30 -34,-61 -34,-96l0 -5489 -1701 0c-35,0 -65,-11 -91,-32 -23,-20 -45,-52 -63,-97 -15,-44 -31,-100 -39,-172 -9,-75 -13,-161 -13,-262 0,-104 4,-195 13,-268 8,-74 24,-133 39,-176 18,-45 40,-76 63,-96 26,-19 56,-28 91,-28l4794 0c29,0 59,9 86,28 26,20 48,51 66,96 18,43 31,102 39,176 10,73 13,164 13,268zm5245 5212c0,88 -2,164 -7,224 -6,61 -15,116 -26,158 -8,45 -22,83 -41,115 -18,30 -45,67 -84,106 -38,40 -113,92 -223,155 -111,61 -246,121 -406,179 -160,56 -341,104 -546,142 -204,38 -427,58 -665,58 -466,0 -886,-72 -1261,-216 -376,-143 -696,-359 -958,-645 -263,-285 -465,-641 -604,-1070 -141,-427 -210,-924 -210,-1492 0,-578 76,-1092 231,-1540 155,-449 370,-827 647,-1131 276,-306 608,-536 996,-693 386,-158 814,-238 1280,-238 189,0 371,17 547,49 176,31 337,72 486,124 149,49 282,110 401,176 120,68 204,125 251,172 46,48 79,89 97,118 17,33 31,72 41,120 11,51 20,109 25,175 6,66 7,147 7,246 0,104 -4,193 -11,268 -7,73 -19,132 -35,177 -18,45 -40,79 -63,99 -26,21 -54,32 -85,32 -52,0 -118,-30 -199,-91 -81,-61 -185,-130 -312,-205 -128,-75 -281,-143 -458,-205 -176,-61 -386,-91 -633,-91 -269,0 -509,56 -721,165 -211,112 -392,267 -541,472 -149,206 -262,454 -339,746 -78,289 -115,617 -115,982 0,398 41,745 124,1038 82,290 199,532 351,721 152,189 337,331 552,423 216,93 458,139 727,139 244,0 457,-28 636,-86 177,-57 331,-122 458,-190 129,-70 233,-134 316,-189 82,-56 146,-84 192,-84 34,0 62,7 83,21 21,14 40,42 54,84 12,43 23,102 31,177 7,77 10,177 10,305zm5519 -5212c0,101 -3,187 -13,262 -8,72 -21,128 -39,172 -17,45 -40,77 -66,97 -26,21 -55,32 -86,32l-1702 0 0 5489c0,35 -11,66 -35,96 -23,26 -61,50 -113,67 -52,17 -124,31 -214,42 -89,10 -200,16 -334,16 -132,0 -244,-6 -334,-16 -90,-11 -162,-25 -213,-42 -52,-17 -90,-41 -114,-67 -22,-30 -33,-61 -33,-96l0 -5489 -1702 0c-34,0 -65,-11 -90,-32 -24,-20 -45,-52 -64,-97 -15,-44 -29,-100 -39,-172 -9,-75 -13,-161 -13,-262 0,-104 4,-195 13,-268 10,-74 24,-133 39,-176 19,-45 40,-76 64,-96 25,-19 56,-28 90,-28l4794 0c31,0 59,9 86,28 26,20 49,51 66,96 18,43 31,102 39,176 10,73 13,164 13,268zm5733 4198c0,242 -33,461 -100,658 -67,196 -159,370 -274,521 -120,151 -259,280 -421,390 -164,109 -343,197 -539,269 -195,71 -405,123 -628,154 -223,35 -470,51 -744,51l-1807 0c-116,0 -213,-34 -292,-103 -79,-68 -118,-179 -118,-334l0 -5935c0,-155 39,-266 118,-334 79,-69 176,-103 292,-103l1706 0c416,0 768,36 1057,106 288,70 532,176 729,318 199,141 350,321 454,538 107,217 158,472 158,767 0,166 -22,320 -62,465 -43,146 -105,278 -184,397 -81,121 -180,224 -298,317 -117,90 -250,165 -400,220 191,36 371,97 535,184 163,89 304,202 425,340 123,139 217,301 288,487 69,186 105,395 105,627zm-1787 -2870c0,-136 -23,-259 -64,-369 -41,-107 -104,-198 -188,-270 -85,-72 -191,-126 -319,-165 -127,-38 -297,-58 -511,-58l-696 0 0 1767 769 0c200,0 360,-23 479,-72 118,-47 217,-111 296,-193 79,-83 137,-180 176,-290 38,-111 58,-226 58,-350zm355 2919c0,-158 -27,-300 -79,-425 -52,-124 -130,-228 -232,-313 -101,-83 -230,-148 -388,-196 -158,-44 -362,-67 -616,-67l-818 0 0 1939 997 0c193,0 354,-19 488,-61 131,-40 244,-101 341,-179 94,-79 170,-177 225,-295 55,-117 82,-252 82,-403zm8666 -1490c0,565 -69,1069 -210,1514 -139,445 -347,824 -626,1133 -276,311 -619,548 -1027,711 -409,164 -881,244 -1419,244 -529,0 -990,-69 -1384,-208 -395,-138 -723,-348 -987,-633 -262,-285 -460,-645 -591,-1084 -131,-438 -198,-956 -198,-1556 0,-549 71,-1045 210,-1485 141,-441 348,-814 627,-1123 276,-308 620,-545 1027,-708 410,-166 883,-248 1424,-248 516,0 969,68 1365,204 393,137 723,347 988,633 265,283 465,641 599,1073 135,434 202,944 202,1533zm-1453 70c0,-356 -30,-682 -85,-975 -55,-293 -151,-543 -286,-752 -134,-208 -314,-370 -538,-485 -224,-112 -504,-170 -841,-170 -338,0 -623,65 -848,192 -228,128 -414,300 -554,514 -139,213 -238,462 -296,748 -57,287 -87,589 -87,909 0,371 30,705 85,1001 56,297 150,550 284,762 133,210 310,369 535,481 224,110 506,166 846,166 339,0 622,-63 849,-192 228,-125 413,-297 554,-514 139,-218 238,-471 296,-759 56,-290 86,-599 86,-926z"/>
    <path class="fil1" d="M94064 18768c0,34 -9,66 -29,96 -19,26 -56,49 -105,67 -51,17 -120,31 -203,41 -85,12 -193,17 -322,17 -127,0 -233,-5 -318,-17 -84,-10 -150,-24 -201,-41 -48,-18 -84,-41 -104,-67 -21,-30 -32,-62 -32,-96l0 -5542 -12 0 -1965 5537c-14,45 -36,82 -69,113 -32,30 -73,54 -128,72 -55,16 -124,28 -207,34 -85,6 -186,7 -306,7 -120,0 -220,-4 -305,-13 -84,-8 -154,-22 -208,-43 -53,-20 -97,-43 -129,-69 -31,-30 -53,-64 -64,-101l-1897 -5537 -10 0 0 5542c0,34 -10,66 -30,96 -20,26 -55,49 -107,67 -55,17 -122,31 -205,41 -82,12 -188,17 -318,17 -128,0 -233,-5 -318,-17 -84,-10 -152,-24 -203,-41 -50,-18 -86,-41 -105,-67 -20,-30 -30,-62 -30,-96l0 -6067c0,-179 48,-316 142,-412 96,-94 222,-141 381,-141l905 0c162,0 302,13 417,40 116,27 217,70 302,131 82,60 154,142 210,242 55,100 106,224 146,372l1468 4056 21 0 1519 -4047c45,-147 96,-271 149,-374 55,-100 119,-183 191,-246 71,-62 157,-107 254,-134 99,-27 215,-40 344,-40l933 0c96,0 176,13 245,38 68,23 125,59 169,107 44,47 76,105 100,172 24,69 34,148 34,236l0 6067zm7062 -327c41,127 67,227 79,300 11,74 -3,130 -41,168 -40,35 -109,59 -207,67 -96,9 -233,13 -403,13 -181,0 -320,-1 -419,-7 -101,-6 -176,-17 -231,-32 -52,-17 -87,-38 -108,-67 -23,-26 -40,-64 -52,-109l-448 -1368 -2567 0 -430 1330c-14,50 -32,91 -56,124 -21,35 -59,59 -109,78 -50,20 -122,33 -215,40 -93,7 -216,11 -366,11 -162,0 -288,-5 -379,-17 -92,-10 -155,-35 -189,-74 -35,-41 -48,-99 -38,-172 11,-75 38,-171 79,-295l2098 -6042c19,-59 45,-108 73,-144 27,-38 72,-64 133,-84 63,-20 147,-32 257,-38 107,-6 251,-7 431,-7 206,0 372,1 493,7 124,6 220,18 287,38 69,20 117,48 148,86 29,39 55,92 75,158l2105 6036zm-3125 -4998l-4 0 -948 2896 1910 0 -958 -2896zm8743 773c0,385 -59,723 -179,1016 -119,297 -293,545 -523,745 -228,203 -508,357 -841,462 -331,106 -723,158 -1173,158l-569 0 0 2171c0,36 -12,66 -34,96 -24,26 -62,49 -114,67 -52,19 -122,31 -210,41 -86,12 -199,17 -334,17 -133,0 -244,-5 -334,-17 -90,-10 -159,-24 -211,-41 -53,-18 -90,-41 -110,-67 -23,-30 -33,-62 -33,-96l0 -6124c0,-166 44,-290 130,-372 86,-83 199,-124 339,-124l1605 0c162,0 316,6 462,19 145,11 320,39 524,78 203,41 409,115 617,225 209,107 389,246 536,412 147,168 260,361 338,586 77,223 114,472 114,748zm-1443 102c0,-240 -43,-437 -128,-592 -84,-155 -189,-269 -313,-342 -124,-75 -252,-121 -387,-141 -137,-20 -276,-28 -421,-28l-593 0 0 2316 624 0c222,0 408,-31 559,-90 149,-59 273,-144 368,-251 95,-106 167,-235 217,-385 49,-149 74,-312 74,-487zm7554 4456c0,38 -11,70 -33,97 -19,27 -57,48 -112,66 -55,17 -128,31 -220,39 -92,9 -208,13 -352,13 -152,0 -275,-4 -366,-13 -93,-8 -169,-22 -225,-43 -57,-20 -98,-44 -127,-79 -27,-31 -49,-73 -63,-124l-548 -1517c-77,-223 -158,-407 -242,-557 -84,-149 -177,-270 -280,-363 -100,-92 -217,-159 -347,-199 -131,-37 -276,-56 -438,-56l-310 0 0 2730c0,38 -11,70 -32,97 -20,27 -58,48 -110,68 -52,21 -123,35 -210,43 -86,9 -200,13 -334,13 -134,0 -245,-4 -334,-13 -90,-8 -160,-22 -212,-43 -52,-20 -89,-41 -113,-68 -24,-27 -34,-59 -34,-97l0 -6437c0,-38 10,-70 34,-97 24,-27 61,-48 113,-66 52,-17 122,-31 212,-39 89,-10 200,-13 334,-13 134,0 248,3 334,13 87,8 158,21 210,39 52,18 90,39 110,66 21,26 32,58 32,97l0 2553 310 0c158,0 299,-21 417,-62 120,-44 228,-110 324,-200 97,-91 186,-210 265,-355 79,-145 155,-325 229,-539l458 -1356c19,-48 38,-90 64,-122 25,-34 63,-61 118,-79 54,-20 125,-34 216,-42 87,-10 208,-13 359,-13 135,0 249,3 337,13 90,8 160,21 210,38 52,15 87,35 102,62 18,26 27,59 27,97 0,45 -7,102 -23,169 -16,66 -43,154 -83,262l-456 1208c-84,225 -169,416 -252,573 -85,159 -173,293 -267,402 -91,112 -190,202 -294,271 -103,70 -217,128 -344,175l0 4c141,60 268,127 382,203 114,76 223,172 323,286 98,117 196,259 287,428 90,169 183,375 279,621l558 1413c58,144 90,242 100,299 11,53 17,98 17,134zm5053 -361c0,103 -4,186 -13,256 -10,69 -22,124 -39,165 -19,44 -41,75 -68,94 -24,20 -55,29 -86,29l-3415 0c-115,0 -212,-34 -291,-103 -79,-68 -118,-179 -118,-334l0 -5935c0,-155 39,-266 118,-335 79,-68 176,-102 291,-102l3400 0c30,0 59,9 84,27 23,18 44,48 62,92 17,45 31,100 40,169 10,69 12,156 12,262 0,98 -2,181 -12,251 -9,68 -21,124 -40,166 -18,42 -39,73 -62,93 -25,19 -54,28 -84,28l-2430 0 0 1659 2047 0c32,0 60,9 86,29 28,19 49,49 67,90 17,39 30,93 39,163 9,68 13,151 13,248 0,103 -4,186 -13,254 -9,66 -22,119 -39,159 -18,41 -39,70 -67,86 -26,18 -54,27 -86,27l-2047 0 0 1918 2445 0c33,0 62,9 86,28 27,20 49,51 68,93 17,42 29,98 39,166 9,70 13,154 13,257zm5712 -5697c0,102 -3,188 -12,262 -9,72 -22,128 -40,172 -17,45 -39,77 -66,97 -25,21 -55,32 -86,32l-1702 0 0 5489c0,34 -11,66 -35,96 -23,26 -60,49 -113,67 -52,17 -124,31 -214,41 -89,12 -200,17 -334,17 -132,0 -243,-5 -333,-17 -89,-10 -161,-24 -213,-41 -53,-18 -90,-41 -114,-67 -23,-30 -34,-62 -34,-96l0 -5489 -1702 0c-34,0 -65,-11 -90,-32 -24,-20 -45,-52 -63,-97 -16,-44 -30,-100 -40,-172 -8,-74 -11,-160 -11,-262 0,-104 3,-194 11,-268 10,-74 24,-133 40,-176 18,-45 39,-76 63,-95 25,-20 56,-29 90,-29l4794 0c31,0 59,9 86,29 27,19 49,50 66,95 18,43 31,102 40,176 9,74 12,164 12,268zm6348 6063c0,34 -11,65 -34,92 -24,27 -62,48 -114,66 -52,17 -124,31 -213,39 -90,9 -201,13 -334,13 -133,0 -245,-4 -333,-13 -91,-8 -161,-22 -210,-39 -54,-18 -89,-39 -109,-66 -21,-27 -32,-58 -32,-92l0 -3589c0,-137 1,-272 5,-403 3,-132 9,-249 16,-349l-10 0c-29,48 -62,105 -101,170 -40,65 -81,133 -124,204 -44,72 -92,147 -140,221 -50,76 -98,150 -147,220l-2365 3532c-29,38 -57,72 -86,98 -30,29 -68,50 -116,67 -47,15 -105,26 -173,32 -68,6 -158,7 -265,7 -137,0 -248,-4 -331,-13 -85,-8 -151,-22 -198,-39 -48,-18 -80,-41 -97,-68 -18,-29 -27,-63 -27,-101l0 -6442c0,-34 11,-65 34,-92 24,-27 62,-48 116,-66 53,-17 125,-31 214,-39 86,-10 197,-13 329,-13 135,0 248,3 334,13 89,8 158,22 210,39 52,18 90,39 110,66 21,27 32,58 32,92l0 3611c0,111 -1,232 -5,357 -3,127 -9,250 -16,368l10 0c62,-104 137,-231 229,-379 91,-147 187,-290 284,-431l2368 -3532c25,-34 51,-65 79,-91 28,-27 66,-48 113,-67 46,-15 105,-28 176,-36 70,-7 159,-10 269,-10 132,0 241,3 324,13 82,8 146,22 197,39 48,18 83,39 103,66 18,27 28,59 28,97l0 6448zm6796 -11c0,34 -10,66 -34,96 -24,26 -61,49 -113,67 -52,17 -122,31 -210,41 -87,12 -198,17 -329,17 -137,0 -250,-5 -340,-17 -89,-10 -158,-24 -210,-41 -49,-18 -86,-41 -108,-67 -24,-30 -35,-62 -35,-96l0 -2753 -2553 0 0 2753c0,34 -11,66 -32,96 -20,26 -58,49 -110,67 -52,17 -123,31 -210,41 -86,12 -199,17 -334,17 -133,0 -244,-5 -334,-17 -90,-10 -159,-24 -213,-41 -52,-18 -89,-41 -112,-67 -23,-30 -34,-62 -34,-96l0 -6431c0,-35 11,-66 34,-96 23,-26 60,-50 112,-67 54,-19 123,-31 213,-42 90,-11 201,-16 334,-16 135,0 248,5 334,16 87,11 158,25 210,42 52,17 90,41 110,67 21,30 32,61 32,96l0 2505 2553 0 0 -2505c0,-35 11,-66 35,-96 22,-26 59,-50 108,-67 52,-17 121,-31 210,-42 90,-11 203,-16 340,-16 131,0 242,5 329,16 88,11 158,23 210,42 52,17 89,41 113,67 24,30 34,61 34,96l0 6431zm5342 -6049c0,104 -3,193 -13,263 -8,72 -23,130 -39,174 -19,45 -40,74 -67,94 -26,20 -57,29 -91,29l-2257 0 0 5500c0,34 -11,65 -34,92 -24,27 -62,48 -114,66 -52,17 -124,31 -210,39 -87,9 -201,13 -337,13 -133,0 -245,-4 -335,-13 -89,-8 -160,-22 -213,-39 -52,-18 -90,-39 -112,-66 -24,-27 -35,-58 -35,-92l0 -6194c0,-148 38,-258 114,-330 74,-71 173,-107 297,-107l3236 0c70,0 122,43 158,131 35,88 52,234 52,440zm6612 2754c0,565 -69,1069 -210,1514 -139,445 -348,824 -625,1133 -278,311 -620,548 -1027,711 -410,164 -882,244 -1419,244 -531,0 -992,-70 -1385,-208 -395,-138 -724,-348 -987,-634 -262,-283 -461,-644 -592,-1082 -131,-438 -197,-958 -197,-1557 0,-549 70,-1045 210,-1485 141,-441 349,-814 627,-1122 276,-309 620,-546 1027,-709 410,-166 883,-248 1424,-248 516,0 969,68 1365,204 393,137 723,347 988,633 265,283 464,641 598,1073 136,434 203,944 203,1533zm-1454 70c0,-357 -28,-682 -84,-974 -55,-293 -151,-544 -286,-753 -134,-208 -314,-370 -538,-484 -224,-114 -505,-171 -840,-171 -339,0 -624,65 -849,192 -229,128 -413,300 -554,514 -140,213 -238,462 -296,748 -58,287 -86,589 -86,909 0,372 28,705 85,1001 55,297 150,550 283,762 133,210 310,370 535,481 224,110 506,166 846,166 339,0 622,-63 849,-190 228,-127 413,-299 553,-516 140,-218 239,-470 296,-759 58,-290 86,-599 86,-926zm7546 1371c0,242 -34,461 -102,658 -66,196 -157,370 -273,521 -120,151 -259,280 -421,390 -164,109 -343,197 -539,269 -195,71 -405,122 -628,154 -222,35 -470,51 -744,51l-1807 0c-116,0 -213,-34 -292,-103 -79,-68 -118,-179 -118,-334l0 -5935c0,-155 39,-266 118,-335 79,-68 176,-102 292,-102l1705 0c417,0 769,36 1058,106 289,70 532,176 729,318 199,141 350,321 454,539 106,217 158,471 158,766 0,166 -21,320 -62,465 -42,146 -105,279 -184,397 -81,120 -180,224 -298,316 -117,91 -249,166 -400,221 191,36 372,97 535,184 163,89 305,202 426,340 121,138 217,301 287,487 69,186 106,395 106,627zm-1789 -2870c0,-136 -22,-259 -63,-367 -40,-109 -104,-200 -188,-272 -85,-72 -191,-126 -318,-165 -127,-38 -298,-58 -512,-58l-696 0 0 1767 769 0c200,0 360,-23 478,-72 118,-46 218,-111 297,-193 79,-83 137,-180 176,-290 37,-111 57,-226 57,-350zm356 2919c0,-157 -27,-300 -79,-425 -52,-124 -130,-228 -232,-313 -100,-83 -230,-148 -388,-194 -158,-45 -362,-69 -616,-69l-818 0 0 1939 998 0c192,0 353,-19 487,-61 131,-40 244,-100 341,-179 94,-79 170,-176 225,-295 55,-117 82,-252 82,-403zm9668 1816c0,34 -10,65 -34,92 -22,27 -60,48 -112,66 -53,17 -124,31 -214,39 -89,9 -201,13 -334,13 -133,0 -244,-4 -333,-13 -87,-8 -158,-22 -211,-39 -55,-18 -93,-39 -117,-66 -23,-27 -34,-58 -34,-92l0 -6453c0,-34 11,-65 34,-92 24,-27 62,-48 117,-66 53,-17 125,-31 215,-39 90,-10 199,-13 329,-13 133,0 245,3 334,13 90,8 161,22 214,39 52,18 90,39 112,66 24,27 34,58 34,92l0 6453zm-2219 -2068c0,323 -50,617 -149,886 -100,268 -258,502 -472,703 -214,199 -493,358 -838,478 -345,120 -816,179 -1412,179l-1604 0c-61,0 -116,-7 -166,-24 -50,-16 -95,-43 -134,-79 -38,-37 -69,-82 -92,-137 -24,-55 -35,-119 -35,-197l0 -6194c0,-34 11,-65 35,-92 23,-27 61,-48 114,-66 54,-17 126,-31 216,-39 90,-10 197,-13 328,-13 135,0 248,3 335,13 88,8 158,22 210,39 52,18 89,39 109,66 22,27 32,58 32,92l0 2354 859 0c510,0 916,43 1219,131 303,87 562,217 773,390 213,172 378,386 496,641 117,256 176,545 176,869zm-1421 114c0,-166 -26,-318 -75,-450 -48,-133 -124,-246 -225,-341 -103,-94 -232,-168 -390,-219 -158,-52 -392,-80 -700,-80l-712 0 0 2155 733 0c322,0 566,-32 729,-97 164,-65 289,-149 381,-251 91,-104 158,-218 197,-343 42,-126 62,-251 62,-374zm9974 1611c63,124 104,221 124,294 19,74 7,131 -34,169 -44,39 -119,63 -228,73 -112,12 -265,17 -460,17 -163,0 -294,-4 -388,-11 -95,-7 -169,-17 -223,-34 -54,-16 -93,-38 -118,-66 -26,-27 -45,-63 -62,-104l-1284 -2459 -1270 2459c-22,41 -44,77 -68,104 -25,28 -65,50 -118,66 -57,17 -133,27 -230,34 -96,7 -224,11 -382,11 -183,0 -325,-5 -425,-17 -99,-10 -168,-34 -203,-73 -34,-38 -41,-95 -20,-169 20,-73 65,-170 131,-294l1629 -2973 -1516 -2795c-62,-127 -106,-227 -128,-303 -23,-76 -16,-131 26,-169 40,-35 115,-59 223,-67 109,-10 264,-13 462,-13 166,0 297,3 395,10 97,8 172,18 228,35 56,16 96,38 118,66 23,27 44,62 66,104l1202 2253 1158 -2253c21,-42 42,-77 66,-104 21,-28 59,-50 110,-66 50,-17 120,-27 210,-35 89,-7 213,-10 372,-10 173,0 311,3 414,13 100,8 171,32 210,71 38,37 48,95 28,169 -19,74 -59,172 -118,299l-1515 2778 1618 2990zm-78202 10571c0,38 -11,70 -32,97 -20,27 -58,48 -114,66 -54,16 -127,31 -219,40 -91,8 -208,12 -352,12 -152,0 -274,-4 -366,-12 -93,-9 -169,-24 -224,-44 -58,-20 -99,-44 -128,-79 -27,-32 -48,-73 -62,-124l-548 -1517c-78,-223 -158,-407 -243,-556 -84,-150 -177,-271 -280,-364 -100,-93 -217,-159 -346,-199 -131,-38 -277,-56 -438,-56l-312 0 0 2730c0,38 -10,70 -32,97 -20,27 -57,48 -109,68 -52,20 -122,35 -210,44 -87,8 -200,12 -335,12 -132,0 -243,-4 -334,-12 -89,-9 -159,-24 -211,-44 -52,-20 -90,-41 -113,-68 -24,-27 -35,-59 -35,-97l0 -6436c0,-38 11,-71 35,-98 23,-26 61,-49 113,-66 52,-17 122,-31 211,-39 91,-10 202,-13 334,-13 135,0 248,3 335,13 88,8 158,21 210,39 52,17 89,40 109,66 22,26 32,58 32,98l0 2552 312 0c157,0 298,-21 416,-62 120,-43 227,-110 325,-200 97,-91 185,-210 264,-355 79,-145 154,-325 230,-539l458 -1356c18,-48 38,-89 62,-122 25,-34 65,-61 119,-79 54,-20 126,-34 216,-42 87,-10 207,-13 358,-13 137,0 250,3 338,13 90,8 159,21 210,38 52,15 86,35 103,62 18,27 26,59 26,97 0,45 -7,103 -23,169 -16,66 -43,154 -82,262l-457 1209c-84,224 -169,415 -253,572 -85,158 -172,293 -265,402 -92,112 -190,202 -295,271 -102,70 -218,128 -343,175l0 3c141,61 267,128 380,203 116,77 223,173 324,287 99,117 196,259 287,428 89,169 184,375 278,621l559 1413c58,144 89,243 100,298 11,54 17,98 17,135z"/>
    <path class="fil1" d="M98046 25706c0,565 -70,1069 -210,1514 -139,446 -348,825 -626,1133 -277,310 -619,548 -1027,711 -409,164 -882,244 -1419,244 -530,0 -991,-70 -1385,-208 -394,-138 -723,-348 -986,-634 -263,-283 -461,-644 -592,-1082 -131,-438 -197,-958 -197,-1557 0,-549 70,-1045 210,-1485 141,-440 348,-814 627,-1122 276,-309 620,-547 1027,-709 410,-166 883,-248 1424,-248 514,0 969,68 1364,204 394,137 724,347 989,633 265,283 464,641 598,1073 136,434 203,944 203,1533zm-1454 70c0,-357 -29,-681 -84,-974 -56,-293 -151,-544 -286,-753 -134,-208 -314,-370 -538,-484 -224,-114 -505,-171 -841,-171 -338,0 -623,64 -850,192 -227,127 -412,300 -552,514 -141,213 -239,462 -296,748 -58,287 -87,589 -87,909 0,372 29,705 85,1001 56,296 150,550 284,762 133,210 310,370 534,481 225,110 507,165 847,165 339,0 622,-62 849,-190 228,-126 413,-298 552,-515 141,-218 240,-470 297,-760 57,-289 86,-598 86,-925zm10551 3225c0,34 -9,66 -29,96 -19,27 -56,49 -105,67 -51,17 -119,31 -203,43 -85,10 -193,15 -323,15 -127,0 -232,-5 -317,-15 -84,-12 -150,-26 -201,-43 -48,-18 -85,-40 -104,-67 -22,-30 -33,-62 -33,-96l0 -5543 -10 0 -1966 5538c-14,45 -37,82 -68,113 -32,30 -75,54 -130,72 -53,16 -124,29 -206,34 -85,6 -187,7 -305,7 -121,0 -221,-4 -306,-12 -84,-9 -154,-24 -208,-44 -54,-20 -97,-42 -130,-69 -31,-30 -52,-63 -62,-101l-1899 -5538 -10 0 0 5543c0,34 -9,66 -29,96 -20,27 -55,49 -107,67 -54,17 -123,31 -206,43 -82,10 -187,15 -317,15 -128,0 -234,-5 -318,-15 -83,-12 -152,-26 -203,-43 -50,-18 -86,-40 -106,-67 -19,-30 -28,-62 -28,-96l0 -6067c0,-179 47,-316 141,-410 96,-96 221,-143 382,-143l904 0c162,0 302,13 417,40 117,27 217,69 302,131 83,61 153,142 210,242 56,100 105,224 146,372l1468 4056 21 0 1519 -4047c45,-147 96,-271 149,-374 56,-100 119,-183 190,-246 72,-62 158,-107 255,-134 99,-27 214,-40 344,-40l934 0c94,0 176,13 244,37 67,24 125,61 169,109 45,46 77,104 100,172 24,68 34,147 34,235l0 6067zm9415 0c0,34 -8,66 -28,96 -20,27 -56,49 -106,67 -50,17 -118,31 -202,43 -85,10 -193,15 -323,15 -127,0 -232,-5 -317,-15 -84,-12 -151,-26 -201,-43 -48,-18 -85,-40 -104,-67 -22,-30 -33,-62 -33,-96l0 -5543 -10 0 -1966 5538c-15,45 -37,82 -68,113 -34,30 -75,54 -130,72 -53,16 -124,29 -207,34 -84,6 -186,7 -304,7 -121,0 -221,-4 -306,-12 -84,-9 -155,-24 -208,-44 -54,-20 -97,-42 -130,-69 -31,-30 -52,-63 -62,-101l-1899 -5538 -10 0 0 5543c0,34 -9,66 -29,96 -20,27 -55,49 -107,67 -54,17 -123,31 -206,43 -82,10 -187,15 -317,15 -128,0 -234,-5 -318,-15 -85,-12 -152,-26 -203,-43 -51,-18 -86,-40 -106,-67 -19,-30 -28,-62 -28,-96l0 -6067c0,-179 46,-316 141,-410 96,-96 221,-143 380,-143l906 0c162,0 302,13 417,40 117,27 217,69 301,131 82,61 154,142 210,242 57,100 106,224 147,372l1468 4056 21 0 1519 -4047c45,-147 95,-271 149,-374 56,-100 118,-183 190,-246 72,-62 158,-107 255,-134 99,-27 214,-40 344,-40l934 0c94,0 175,13 243,37 68,24 126,61 169,109 46,46 78,104 101,172 23,68 33,147 33,235l0 6067zm4721 -1692c-155,392 -304,717 -454,972 -149,257 -308,460 -477,609 -171,149 -356,252 -558,311 -200,57 -430,86 -689,86 -94,0 -186,-6 -279,-18 -90,-13 -175,-29 -256,-51 -80,-21 -151,-46 -210,-73 -59,-29 -103,-55 -131,-79 -28,-25 -51,-52 -66,-83 -15,-28 -30,-68 -38,-118 -10,-48 -20,-112 -26,-187 -4,-76 -7,-170 -7,-281 0,-206 15,-350 45,-436 30,-86 76,-129 139,-129 32,0 66,13 104,38 39,24 86,51 140,77 54,29 116,54 188,78 72,22 156,34 253,34 74,0 143,-7 205,-24 63,-16 122,-47 178,-92 56,-44 112,-108 167,-191 56,-81 117,-189 180,-322l-2240 -4561c-48,-109 -77,-197 -86,-265 -8,-69 7,-122 48,-160 44,-40 116,-65 214,-78 102,-11 236,-17 405,-17 165,0 296,3 394,10 99,7 179,22 238,45 59,22 106,56 136,99 32,45 63,102 95,173l954 2061c106,221 204,442 297,661 96,219 188,439 274,664l16 0c69,-235 145,-463 224,-686 79,-222 165,-456 261,-702l786 -2094c18,-48 39,-87 68,-118 29,-31 70,-54 126,-72 55,-16 133,-28 232,-34 97,-6 224,-7 383,-7 159,0 288,6 382,16 95,11 163,31 204,59 43,31 62,72 57,124 -2,55 -19,122 -52,207l-1824 4554zm7975 1692c0,34 -11,66 -35,96 -23,27 -61,49 -113,67 -52,17 -121,31 -210,43 -86,10 -197,15 -328,15 -137,0 -250,-5 -340,-15 -90,-12 -158,-26 -210,-43 -50,-18 -87,-40 -110,-67 -23,-30 -33,-62 -33,-96l0 -2752 -2554 0 0 2752c0,34 -10,66 -33,96 -19,27 -56,49 -108,67 -52,17 -123,31 -210,43 -87,10 -200,15 -335,15 -133,0 -244,-5 -334,-15 -89,-12 -160,-26 -212,-43 -52,-18 -90,-40 -112,-67 -24,-30 -35,-62 -35,-96l0 -6431c0,-35 11,-67 35,-96 22,-26 60,-50 112,-67 52,-19 123,-31 212,-42 90,-10 201,-16 334,-16 135,0 248,6 335,16 87,11 158,25 210,42 52,17 89,41 108,67 23,29 33,61 33,96l0 2505 2554 0 0 -2505c0,-35 10,-67 33,-96 23,-26 60,-50 110,-67 52,-17 120,-31 210,-42 90,-10 203,-16 340,-16 131,0 242,6 328,16 89,11 158,23 210,42 52,17 90,41 113,67 24,29 35,61 35,96l0 6431zm7022 11c0,34 -11,65 -35,92 -22,27 -60,48 -113,66 -52,16 -123,31 -213,40 -90,8 -201,12 -334,12 -133,0 -244,-4 -334,-12 -89,-9 -160,-24 -210,-40 -52,-18 -88,-39 -107,-66 -23,-27 -33,-58 -33,-92l0 -3589c0,-137 2,-272 6,-403 3,-132 8,-249 15,-349l-11 0c-28,48 -60,105 -100,170 -39,65 -80,133 -124,205 -45,71 -91,146 -140,221 -50,74 -98,149 -147,218l-2365 3533c-29,37 -57,72 -86,98 -30,29 -68,50 -117,67 -47,15 -103,27 -172,32 -68,6 -158,7 -266,7 -136,0 -247,-4 -330,-12 -85,-9 -151,-24 -197,-40 -50,-18 -82,-41 -98,-69 -18,-28 -26,-62 -26,-100l0 -6442c0,-34 10,-65 33,-92 23,-26 61,-49 116,-66 53,-17 125,-31 213,-39 86,-10 197,-13 331,-13 134,0 248,3 334,13 87,8 157,22 209,39 53,17 91,40 110,66 22,27 33,58 33,92l0 3611c0,111 -3,232 -6,357 -4,127 -8,250 -17,368l12 0c60,-104 136,-231 228,-379 91,-147 186,-290 283,-431l2368 -3532c25,-34 51,-64 79,-91 29,-27 67,-48 114,-66 47,-17 106,-30 176,-37 69,-7 159,-10 269,-10 133,0 241,3 323,13 83,8 148,22 197,39 49,17 83,40 103,66 20,27 29,60 29,98l0 6447zm6527 -5c0,38 -11,70 -32,97 -20,27 -58,48 -113,66 -55,16 -128,31 -220,40 -91,8 -208,12 -352,12 -152,0 -275,-4 -366,-12 -93,-9 -169,-24 -224,-44 -58,-20 -99,-44 -128,-79 -27,-32 -48,-73 -63,-124l-547 -1517c-78,-223 -158,-407 -243,-556 -84,-150 -177,-271 -280,-364 -100,-93 -217,-159 -347,-199 -131,-38 -276,-56 -438,-56l-310 0 0 2730c0,38 -11,70 -32,97 -20,27 -58,48 -110,68 -52,20 -122,35 -210,44 -86,8 -200,12 -334,12 -133,0 -245,-4 -334,-12 -90,-9 -160,-24 -212,-44 -52,-20 -89,-41 -113,-68 -24,-27 -34,-59 -34,-97l0 -6436c0,-38 10,-71 34,-98 24,-26 61,-49 113,-66 52,-17 122,-31 212,-39 89,-10 201,-13 334,-13 134,0 248,3 334,13 88,8 158,21 210,39 52,17 90,40 110,66 21,26 32,58 32,98l0 2552 310 0c158,0 299,-21 417,-62 120,-43 228,-110 324,-200 98,-91 186,-210 265,-355 79,-145 154,-325 230,-539l458 -1356c18,-48 38,-89 63,-122 24,-34 65,-61 118,-79 54,-20 126,-34 216,-42 87,-10 208,-13 359,-13 135,0 249,3 337,13 90,8 160,21 210,38 52,15 87,35 103,62 18,27 26,59 26,97 0,45 -7,103 -24,169 -15,66 -42,154 -81,262l-457 1209c-84,224 -169,415 -252,572 -85,158 -173,293 -266,402 -92,112 -191,202 -295,271 -102,70 -217,128 -343,175l0 3c140,61 267,128 381,203 115,77 223,173 323,287 99,117 196,259 287,428 90,169 184,375 278,621l559 1413c58,144 90,243 100,298 11,54 17,98 17,135zm6599 -333c40,126 67,227 78,300 12,74 -4,130 -40,168 -40,35 -109,59 -207,68 -98,8 -234,12 -405,12 -179,0 -319,-1 -418,-7 -100,-5 -176,-17 -230,-32 -52,-17 -87,-38 -110,-67 -21,-26 -39,-64 -52,-109l-446 -1368 -2568 0 -429 1330c-14,50 -32,91 -56,124 -21,34 -59,59 -110,79 -49,19 -121,32 -214,39 -94,7 -216,11 -368,11 -160,0 -286,-5 -379,-15 -90,-12 -153,-37 -187,-76 -37,-41 -49,-99 -38,-172 11,-75 38,-172 79,-296l2097 -6042c20,-59 45,-107 74,-142 26,-38 72,-65 132,-85 63,-20 148,-32 258,-38 107,-6 251,-7 431,-7 206,0 371,1 493,7 124,6 220,18 287,38 68,20 117,48 147,86 29,39 56,92 76,158l2105 6036zm-3125 -4998l-6 0 -948 2896 1911 0 -957 -2896zm10187 7114c0,35 -10,65 -27,89 -17,24 -47,44 -92,59 -43,17 -104,30 -183,38 -79,10 -179,13 -297,13 -118,0 -217,-3 -294,-13 -77,-8 -138,-21 -185,-38 -48,-15 -81,-35 -100,-59 -20,-24 -30,-55 -30,-89l0 -1600 -4501 0c-124,0 -221,-37 -293,-107 -71,-72 -107,-182 -107,-330l0 -6194c0,-34 10,-65 34,-92 23,-26 61,-49 113,-66 52,-17 122,-31 212,-39 89,-10 201,-13 334,-13 134,0 248,3 334,13 88,8 158,22 210,39 52,17 90,40 110,66 21,27 32,58 32,92l0 5488 2521 0 0 -5488c0,-34 11,-65 34,-92 23,-26 61,-49 113,-66 51,-17 122,-31 212,-39 90,-10 201,-13 334,-13 135,0 248,3 334,13 88,8 158,22 210,39 52,17 90,40 109,66 22,27 33,58 33,92l0 5488 597 0c89,0 150,20 182,62 34,40 51,113 51,223l0 2458zm6514 -1778c0,34 -12,65 -34,92 -24,27 -61,48 -113,66 -52,16 -124,31 -214,40 -90,8 -202,12 -334,12 -134,0 -245,-4 -334,-12 -90,-9 -160,-24 -210,-40 -52,-18 -88,-39 -108,-66 -21,-27 -33,-58 -33,-92l0 -3589c0,-137 2,-272 6,-403 4,-132 9,-249 17,-349l-11 0c-30,48 -61,105 -102,170 -39,65 -80,133 -124,205 -44,71 -90,146 -139,221 -51,74 -99,149 -147,218l-2365 3533c-28,37 -58,72 -86,98 -31,29 -69,50 -117,67 -47,15 -104,27 -172,32 -69,6 -159,7 -266,7 -137,0 -248,-4 -331,-12 -83,-9 -151,-24 -197,-40 -48,-18 -81,-41 -97,-69 -18,-28 -27,-62 -27,-100l0 -6442c0,-34 11,-65 34,-92 24,-26 61,-49 115,-66 54,-17 126,-31 214,-39 86,-10 197,-13 330,-13 135,0 248,3 334,13 88,8 159,22 210,39 52,17 90,40 110,66 21,27 32,58 32,92l0 3611c0,111 -2,232 -6,357 -3,127 -8,250 -15,368l10 0c62,-104 136,-231 228,-379 92,-147 187,-290 284,-431l2368 -3532c26,-34 51,-64 79,-91 29,-27 67,-48 113,-66 47,-17 107,-30 176,-37 71,-7 161,-10 269,-10 134,0 241,3 324,13 82,8 147,22 197,39 48,17 83,40 103,66 20,27 29,60 29,98l0 6447zm7022 0c0,34 -11,65 -34,92 -24,27 -62,48 -114,66 -52,16 -124,31 -213,40 -90,8 -201,12 -334,12 -133,0 -245,-4 -333,-12 -91,-9 -161,-24 -210,-40 -54,-18 -89,-39 -109,-66 -21,-27 -32,-58 -32,-92l0 -3589c0,-137 1,-272 5,-403 3,-132 9,-249 16,-349l-10 0c-29,48 -62,105 -101,170 -40,65 -81,133 -124,205 -44,71 -92,146 -140,221 -50,74 -98,149 -146,218l-2366 3533c-29,37 -57,72 -86,98 -30,29 -68,50 -116,67 -47,15 -105,27 -172,32 -69,6 -159,7 -267,7 -136,0 -247,-4 -330,-12 -85,-9 -151,-24 -198,-40 -48,-18 -80,-41 -97,-69 -17,-28 -27,-62 -27,-100l0 -6442c0,-34 11,-65 34,-92 24,-26 62,-49 116,-66 53,-17 125,-31 214,-39 86,-10 197,-13 329,-13 135,0 248,3 334,13 89,8 158,22 210,39 52,17 90,40 110,66 21,27 32,58 32,92l0 3611c0,111 -1,232 -5,357 -3,127 -9,250 -16,368l10 0c62,-104 137,-231 229,-379 91,-147 187,-290 284,-431l2368 -3532c25,-34 51,-64 79,-91 28,-27 66,-48 113,-66 46,-17 105,-30 176,-37 70,-7 160,-10 269,-10 133,0 241,3 324,13 82,8 146,22 197,39 48,17 83,40 103,66 19,27 28,60 28,98l0 6447zm-797 -8462c0,193 -34,380 -101,558 -67,178 -174,335 -323,471 -150,136 -347,243 -591,325 -244,80 -542,121 -897,121 -345,0 -638,-37 -880,-111 -243,-73 -440,-176 -592,-303 -154,-130 -265,-283 -335,-465 -70,-183 -106,-381 -106,-596 0,-52 10,-96 29,-130 20,-33 51,-60 96,-82 48,-20 109,-36 188,-45 79,-9 179,-13 298,-13 113,0 205,5 279,16 75,12 130,27 168,47 39,21 66,48 83,83 16,34 23,73 23,118 0,85 16,165 50,239 34,74 82,139 147,192 66,56 148,101 242,137 96,34 202,52 317,52 113,0 215,-17 307,-50 92,-34 171,-78 237,-133 64,-55 113,-119 148,-196 33,-76 49,-160 49,-252 0,-41 7,-79 21,-108 13,-34 42,-61 82,-82 39,-20 93,-35 162,-47 67,-11 155,-16 259,-16 127,0 230,4 313,13 80,9 148,25 196,45 48,22 83,49 102,82 20,34 29,78 29,130z"/>
   </g>
  </g>
 </g>
</svg>
