<?xml version="1.0" encoding="UTF-8"?>
<!DOCTYPE svg PUBLIC "-//W3C//DTD SVG 1.1//EN" "http://www.w3.org/Graphics/SVG/1.1/DTD/svg11.dtd">
<!-- Creator: CorelDRAW X8 -->
<svg xmlns="http://www.w3.org/2000/svg" xml:space="preserve" width="70px" height="55px" version="1.1" style="shape-rendering:geometricPrecision; text-rendering:geometricPrecision; image-rendering:optimizeQuality; fill-rule:evenodd; clip-rule:evenodd"
viewBox="0 0 17416 13741"
 xmlns:xlink="http://www.w3.org/1999/xlink">
 <defs>
  <style type="text/css">
   <![CDATA[
    .fil0 {fill:#31549C;fill-rule:nonzero}
   ]]>
  </style>
 </defs>
 <g id="Слой_x0020_1">
  <metadata id="CorelCorpID_0Corel-Layer"/>
  <path class="fil0" d="M17076 6530l-954 0c-188,0 -340,153 -340,341 0,187 152,340 340,340l954 0c188,0 340,-153 340,-340 0,-188 -152,-341 -340,-341zm-3305 4882c-311,1355 -658,1649 -727,1649 -3,0 -6,-1 -10,-2 -6,-3 -11,-5 -17,-8l-8 -3c-114,-69 -417,-437 -692,-1636 -169,-738 -292,-1627 -362,-2599 959,-125 1701,-946 1701,-1938 0,-992 -743,-1814 -1701,-1939 70,-975 193,-1867 362,-2607 275,-1199 578,-1567 692,-1636l30 -12c2,0 4,-1 5,-1 69,0 416,293 727,1649 277,1209 429,2822 429,4542 0,1719 -152,3332 -429,4541zm-6492 271c0,160 -130,289 -289,289l-3096 0c-159,0 -289,-129 -289,-289l0 -1848 3674 1543 0 305zm-6599 -5811l11281 -4738c-112,290 -214,638 -307,1043 -11,46 -21,92 -31,139l-3857 1452c-175,66 -264,262 -198,438 51,137 181,220 318,220 40,0 81,-7 120,-22l3472 -1306c-176,1102 -271,2407 -271,3773 0,1769 159,3436 447,4693 93,405 195,752 307,1043l-9444 -3967 0 -1775c0,-188 -152,-340 -340,-340 -188,0 -340,152 -340,340l0 1489 -1157 -485 0 -1997zm11207 999c0,-426 10,-845 28,-1253 601,102 1061,627 1061,1257 0,630 -459,1154 -1061,1257 -18,-411 -28,-833 -28,-1261zm1157 -6871c-116,0 -225,27 -330,79l-12506 5253c-126,53 -208,177 -208,313l0 2449c0,137 82,261 208,314l1835 771c1,0 2,1 3,1l879 369 0 2134c0,535 435,970 969,970l3096 0c534,0 969,-435 969,-970l0 -19 4755 1998c105,53 215,79 330,79 599,0 1054,-712 1390,-2177 288,-1257 447,-2924 447,-4693 0,-1770 -159,-3437 -447,-4694 -336,-1465 -791,-2177 -1390,-2177zm3873 8562l-625 -360c-163,-95 -371,-39 -464,124 -95,163 -39,371 124,465l625 360c53,31 112,46 169,46 118,0 232,-61 295,-170 94,-163 38,-371 -124,-465zm-795 -2977c58,0 116,-15 170,-46l625 -360c162,-94 218,-302 124,-465 -94,-162 -302,-218 -464,-124l-625 360c-163,94 -219,302 -124,465 62,109 177,170 294,170z"/>
 </g>
</svg>
