<?xml version="1.0" encoding="UTF-8"?>
<!DOCTYPE svg PUBLIC "-//W3C//DTD SVG 1.1//EN" "http://www.w3.org/Graphics/SVG/1.1/DTD/svg11.dtd">
<!-- Creator: CorelDRAW X8 -->
<svg xmlns="http://www.w3.org/2000/svg" xml:space="preserve" width="62px" height="70px" version="1.1" style="shape-rendering:geometricPrecision; text-rendering:geometricPrecision; image-rendering:optimizeQuality; fill-rule:evenodd; clip-rule:evenodd"
viewBox="0 0 4756 5361"
 xmlns:xlink="http://www.w3.org/1999/xlink">
 <defs>
  <style type="text/css">
   <![CDATA[
    .fil0 {fill:#31549C;fill-rule:nonzero}
   ]]>
  </style>
 </defs>
 <g id="Слой_x0020_1">
  <metadata id="CorelCorpID_0Corel-Layer"/>
  <path class="fil0" d="M3545 285l0 -285 -1037 0 0 285 -1211 432 0 580 -86 0 0 692c0,161 110,295 259,333l0 272 -692 0 0 -272c149,-38 260,-172 260,-333l0 -692 -692 0 0 692c0,161 110,295 259,333l0 272 -173 0c-47,0 -86,-39 -86,-86l0 -87 -346 0 0 173 188 0c35,101 132,173 244,173l87 0 0 86c0,143 116,260 259,260l197 0 28 82c35,106 134,177 246,177l409 0c69,0 134,-27 183,-76l61 -61 0 2126 2249 0 0 -976 94 976 511 0 0 -4644 -1211 -432zm-76 509c48,-33 76,-86 76,-144l0 -181 101 35 144 649 -318 106 225 226 -540 960 299 -1645c4,-2 9,-3 13,-6zm-189 6l-259 1429 -249 -1429 254 -102 254 102zm-167 -253l0 -44 259 -52 0 199 -259 -103zm-432 -374l691 0 0 106c-11,0 -22,0 -34,3l-312 62 -311 -62c-12,-3 -23,-3 -34,-3l0 -106zm259 330l0 44 -259 103 -1 -199 260 52zm-533 1l101 -36 0 182c0,58 28,111 76,144 4,2 8,3 13,6l280 1611 -521 -926 225 -226 -318 -106 144 -649zm-1024 1485l0 -519 346 0 0 519c0,95 -77,173 -173,173 -95,0 -173,-78 -173,-173zm-864 0l0 -519 346 0 0 519c0,95 -78,173 -173,173 -96,0 -173,-78 -173,-173zm259 951c-48,0 -86,-39 -86,-87l0 -86 691 0 0 86c0,48 -38,87 -86,87l-519 0zm1124 51l-183 183c-16,16 -38,25 -61,25l-409 0c-38,0 -70,-23 -82,-59l-9 -27 139 0c143,0 259,-117 259,-260l0 -86 346 0 0 224zm2681 2197l-181 0 -252 -2602 -172 8 0 2594 -1903 0 0 -2594 173 0 0 -173 -346 0 0 87c0,47 -38,86 -86,86l-173 0 0 -272c149,-38 259,-172 259,-333l0 -692 -432 0 0 -458 745 -266 -155 695 201 67 -120 120 885 1575 886 -1575 -120 -120 200 -67 -154 -695 745 266 0 4349z"/>
 </g>
</svg>
