<?xml version="1.0" encoding="UTF-8"?>
<!DOCTYPE svg PUBLIC "-//W3C//DTD SVG 1.1//EN" "http://www.w3.org/Graphics/SVG/1.1/DTD/svg11.dtd">
<!-- Creator: CorelDRAW X8 -->
<svg xmlns="http://www.w3.org/2000/svg" xml:space="preserve" width="192px" height="193px" version="1.1" style="shape-rendering:geometricPrecision; text-rendering:geometricPrecision; image-rendering:optimizeQuality; fill-rule:evenodd; clip-rule:evenodd"
viewBox="0 0 1089 1092"
 xmlns:xlink="http://www.w3.org/1999/xlink">
 <defs>
  <style type="text/css">
   <![CDATA[
    .fil0 {fill:#FEFEFE;fill-rule:nonzero}
   ]]>
  </style>
 </defs>
 <g id="Слой_x0020_1">
  <metadata id="CorelCorpID_0Corel-Layer"/>
  <path class="fil0" d="M853 236c-26,-25 -59,-38 -93,-38 -33,0 -67,13 -92,38 -9,9 -16,19 -22,29 -6,10 -10,22 -13,34 -5,22 -5,45 1,66 6,21 17,40 33,57 17,17 38,28 61,34 22,6 46,5 70,-1 10,-4 20,-8 29,-13 9,-6 18,-13 26,-20 25,-26 38,-59 38,-93 0,-34 -13,-67 -38,-93zm-64 190c-18,5 -36,6 -54,1 -17,-4 -33,-13 -47,-26 -12,-13 -21,-28 -25,-44 -5,-17 -5,-34 -1,-52 2,-9 5,-17 10,-26 4,-8 10,-15 17,-22 19,-20 45,-29 71,-29 26,0 52,9 72,29 20,20 30,46 30,72 0,26 -10,52 -30,72 -6,6 -13,11 -20,15 -7,4 -15,8 -23,10z"/>
  <path class="fil0" d="M369 1089c2,2 5,2 7,3 3,0 5,-1 8,-2l345 -184c2,-1 3,-3 5,-5 1,-2 2,-4 2,-6 3,-17 5,-34 7,-51 1,-17 2,-34 2,-50l0 -2 1 -1c23,-14 44,-30 65,-47 20,-16 40,-34 59,-53 89,-89 153,-197 188,-312 35,-115 41,-236 14,-351 0,-3 -2,-5 -4,-7 -2,-2 -4,-4 -7,-4 -115,-27 -236,-21 -351,14 -115,35 -223,99 -312,188 -18,18 -36,38 -52,57 -16,20 -31,41 -46,63l-1 1 -1 0c-16,0 -33,1 -50,2 -17,2 -34,4 -51,7 -2,0 -3,0 -4,1 -2,1 -3,1 -4,2l-1 1 -1 2 -1 1 -184 345c-2,2 -2,5 -2,8 0,2 1,5 2,7 2,2 4,4 6,5 3,1 5,2 8,2 25,-3 50,-1 75,3 25,5 50,13 74,24l4 2 -17 17c-3,3 -5,7 -5,10 0,4 2,8 5,11l146 146c3,3 7,5 11,5 4,0 8,-2 10,-4l14 -14 2 4c11,23 19,48 24,73 4,26 5,51 3,75 0,3 0,5 1,7 1,2 2,4 3,5l1 1 2 1zm-19 -198l-1 -2 -2 -1c-1,-1 -2,-2 -4,-3 -1,-1 -3,-1 -4,-1 -3,-1 -5,0 -7,0 -2,1 -4,2 -6,4l-17 17 -126 -126 21 -20c1,-2 3,-4 3,-6 1,-2 1,-4 1,-7 0,-2 -1,-4 -2,-6 -2,-2 -3,-4 -5,-5 -25,-13 -50,-24 -76,-31 -27,-7 -54,-11 -80,-12l-5 0c56,-105 112,-210 169,-315l1 0c17,-3 33,-5 49,-6 17,-1 33,-2 48,-1 3,0 5,-1 7,-2 3,-1 5,-3 6,-5 14,-22 30,-44 46,-64 17,-21 34,-40 53,-59 84,-84 186,-145 294,-179 108,-34 222,-41 331,-18l2 1 0 1c23,109 16,224 -18,331 -34,108 -95,210 -179,294 -19,19 -39,37 -60,54 -22,17 -44,33 -67,47 0,1 -1,2 -2,3 -1,1 -2,2 -3,3 0,1 -1,3 -1,4 -1,1 -1,2 -1,4 1,15 0,31 -1,47 -1,16 -3,33 -6,49l0 2c-104,57 -210,112 -315,168l0 -4c-1,-27 -5,-54 -12,-80 -7,-26 -18,-52 -31,-76z"/>
  <path class="fil0" d="M846 562c-19,20 -79,83 -177,147 -58,39 -130,79 -213,111l10 27c88,-33 162,-74 222,-114 100,-67 161,-130 180,-151l-22 -20z"/>
  <path class="fil0" d="M11 1076c2,2 5,3 8,4 3,0 6,0 8,-1l244 -100c3,-1 5,-2 6,-4 2,-2 3,-4 3,-6 1,-3 1,-5 0,-8 -1,-2 -2,-4 -4,-6l-144 -144c-2,-2 -4,-3 -6,-4 -3,-1 -5,-1 -8,0 -2,0 -4,1 -6,3 -2,1 -3,3 -4,6l-100 244c-1,2 -1,5 -1,8 1,3 2,6 4,8zm225 -114l-187 76c26,-63 52,-127 78,-190l113 112 -4 2z"/>
 </g>
</svg>
