<?xml version="1.0" encoding="UTF-8"?>
<!DOCTYPE svg PUBLIC "-//W3C//DTD SVG 1.1//EN" "http://www.w3.org/Graphics/SVG/1.1/DTD/svg11.dtd">
<!-- Creator: CorelDRAW X8 -->
<svg xmlns="http://www.w3.org/2000/svg" xml:space="preserve" width="208px" height="211px" version="1.1" style="shape-rendering:geometricPrecision; text-rendering:geometricPrecision; image-rendering:optimizeQuality; fill-rule:evenodd; clip-rule:evenodd"
viewBox="0 0 1185 1201"
 xmlns:xlink="http://www.w3.org/1999/xlink">
 <defs>
  <style type="text/css">
   <![CDATA[
    .fil0 {fill:#FEFEFE;fill-rule:nonzero}
   ]]>
  </style>
 </defs>
 <g id="Слой_x0020_1">
  <metadata id="CorelCorpID_0Corel-Layer"/>
  <path class="fil0" d="M963 620c-25,15 -51,25 -75,32 -31,8 -60,11 -82,11l0 0c-1,0 0,0 -2,-1l0 0c-1,0 -2,0 -2,0l-10 0 6 -7 0 0c1,-2 2,-4 3,-5 1,-2 3,-3 4,-5 0,-1 0,-1 0,-1 0,0 0,0 0,0l0 0c1,-1 2,-2 3,-4 1,-2 2,-3 3,-5l0 0 1 -1c1,-1 0,0 0,-1 1,-1 2,-2 3,-4 1,-2 2,-4 3,-5 1,-2 1,-1 1,-1 0,-1 0,0 0,-1l0 0c1,-1 2,-3 3,-4 0,0 1,-2 2,-4l1 -2 1 -2 3 0c19,-1 41,-3 65,-10 18,-5 37,-13 55,-25 22,-14 42,-30 60,-49 18,-20 34,-42 48,-66 14,-25 27,-53 37,-84 9,-30 17,-62 21,-97 3,-20 3,-37 0,-52 -3,-15 -9,-27 -18,-37 -7,-9 -17,-16 -30,-20 -12,-5 -26,-7 -43,-7 -12,0 -24,1 -36,3 -14,2 -29,6 -42,10l-6 2 0 -8c1,-4 1,-10 2,-17 0,-6 1,-12 1,-17 0,-2 0,-3 0,-4l3 -2c11,-3 30,-9 51,-13 15,-3 31,-5 47,-5 38,0 67,11 86,32 19,21 29,53 30,95l0 0c1,92 -20,165 -49,222 -46,88 -111,137 -148,159l0 0zm-599 -225l-25 5c8,36 18,68 29,98 10,29 22,55 35,78l22 -13c-12,-22 -23,-47 -34,-75 -10,-28 -19,-59 -27,-93zm57 211c4,7 9,12 13,18 4,5 9,11 13,16l19 -18c-4,-4 -8,-9 -12,-14 -4,-5 -8,-10 -11,-16l-22 14zm390 29l0 0c0,0 0,0 0,0zm-119 83c-13,8 -25,18 -33,30 -9,12 -14,27 -17,42l-1 4 -97 0 -1 -4c-2,-15 -8,-30 -17,-42 -8,-12 -19,-22 -33,-30 -11,-6 -22,-13 -32,-22 -10,-8 -20,-17 -29,-27l0 0 -4 -5c-9,-10 -18,-21 -26,-34 -9,-12 -17,-25 -24,-39l0 0 -5 -9 0 0c-32,-61 -54,-133 -70,-204 -23,-103 -33,-205 -37,-272l0 -5 -2 -41 0 -5c0,-4 0,-9 0,-13 0,-4 -1,-8 -1,-11l0 -5 659 0 0 5c0,3 0,7 0,11 -1,4 -1,9 -1,13l0 5 -1 41 -1 3 0 0 0 2c0,3 0,6 0,8 0,3 0,5 -1,8l0 0c0,0 0,0 0,0 0,3 0,6 0,9 -1,3 -1,6 -1,9 0,0 0,0 0,0 -1,9 -1,18 -2,28 -1,9 -2,18 -3,27l-1 11 0 0c-7,65 -19,139 -38,212 -15,58 -35,114 -60,163l0 0 -5 10c-6,10 -12,20 -18,30 -6,9 -12,18 -19,27l0 0 -1 0c-1,2 -1,3 -2,4 -1,1 -2,2 -3,3l0 0c0,0 0,0 0,1 -1,0 -1,1 -1,1l0 0c-1,1 -2,2 -3,3 -1,1 -2,2 -3,4l0 0 0 0c0,0 0,0 0,0 0,0 0,0 -1,0l0 0c-10,12 -20,22 -31,31 -11,9 -22,17 -34,23zm66 -54c0,0 0,0 0,0l0 0zm-103 211l-125 0c-8,0 -15,-3 -20,-8 -5,-5 -8,-12 -8,-20 0,-7 3,-14 8,-19 5,-5 12,-8 20,-8l125 0c8,0 15,3 20,8 5,5 8,12 8,19 0,8 -3,15 -8,20 -5,5 -12,8 -20,8zm-110 103l0 -77 96 0 0 82 -96 0 0 -5zm192 36l0 47 -288 0 0 -52 288 0 0 5zm94 77l0 84 -477 0 0 -88 477 0 0 4zm-448 -429c0,0 -1,0 -2,0 -2,1 -1,1 -2,1 -22,0 -51,-3 -82,-11 -24,-7 -50,-17 -75,-32l0 0c-36,-22 -102,-71 -147,-159 -30,-57 -50,-130 -49,-222 0,-42 10,-74 29,-95 19,-21 48,-32 86,-32 20,0 40,3 57,7 18,4 32,8 41,11l3 2 0 3c0,5 1,11 1,18 1,7 2,13 2,17l1 8 -7 -2c-12,-4 -25,-7 -38,-10 -14,-2 -27,-3 -40,-3 -17,0 -31,2 -43,7 -12,4 -22,11 -30,20 -9,10 -15,22 -18,37 -3,15 -3,32 0,52 4,35 12,67 22,97 9,31 22,59 36,84 14,24 31,46 49,66 18,19 37,35 59,49 18,12 37,20 56,25 23,7 46,9 64,10l3 0 1 2c0,0 0,0 0,0l0 0 0 1 0 0c2,2 2,3 3,4 1,2 2,3 3,5 0,1 0,0 1,1l0 0c1,2 -1,-1 1,2 0,1 1,3 2,4 2,2 2,4 3,4 0,1 0,1 1,2l0 0 1 2c0,0 1,1 2,2 1,2 1,3 2,3 0,0 1,1 1,3 1,1 2,2 2,2l0 0 2 3c1,1 1,2 2,2 0,1 0,1 1,1 0,1 0,1 0,2l6 7 -10 0zm-9 -27c1,1 -1,-1 0,0l0 0zm-107 -303c9,47 19,90 31,130 12,39 25,76 40,108 1,1 1,2 2,3 1,1 0,0 1,3l4 8 -9 -1c-13,-2 -27,-4 -42,-9 -14,-4 -30,-11 -44,-20 -41,-27 -76,-65 -102,-112 -26,-47 -44,-103 -53,-166 -2,-16 -2,-29 0,-41 2,-11 6,-21 12,-28 6,-6 13,-11 22,-14 9,-3 20,-5 32,-5 14,0 29,2 44,5 14,4 28,8 41,12l3 1 0 3c2,19 5,39 8,60 3,20 6,42 10,63zm673 -127c12,-4 26,-9 40,-12 15,-3 30,-5 44,-5 13,0 23,2 32,5 9,3 17,8 22,14 6,7 10,17 12,28 2,12 2,25 0,41 -9,63 -27,119 -53,166 -26,47 -60,85 -102,112 -14,9 -29,16 -44,20 -15,5 -29,7 -42,9l-9 1 4 -8c24,-50 42,-106 56,-162 18,-71 29,-143 36,-205l1 -3 3 -1zm245 34c0,-50 -13,-88 -37,-113 -24,-26 -59,-40 -104,-40 -15,0 -30,2 -44,4 -19,3 -35,8 -48,12l-7 2 1 -7c0,-15 1,-43 1,-53 1,-19 1,-30 1,-31l0 0 0 -13 -711 0 0 13c0,0 0,12 1,31 0,10 1,38 2,53l0 7 -7 -2c-12,-4 -29,-9 -47,-12 -14,-2 -29,-4 -45,-4 -45,0 -80,14 -104,40 -24,25 -36,63 -37,113 -1,49 5,96 16,140 11,43 28,84 51,121 19,32 41,58 62,80 29,28 57,48 80,62 27,16 55,27 81,34 34,10 65,12 89,12 5,0 11,0 15,0 5,0 10,-1 15,-1l0 0 4 -1 2 2c10,11 21,21 32,30 11,9 22,16 34,23 9,5 17,12 23,21 7,8 11,18 13,29l1 4 -4 1c-11,4 -21,11 -27,20 -7,9 -11,20 -11,31 0,13 4,24 11,33 7,9 17,16 28,19l4 1 0 83 -96 0 0 78 -95 0 0 140 529 0 0 -140 -95 0 0 -78 -96 0 0 -83 4 -1c11,-3 21,-10 28,-19 7,-9 11,-20 11,-33 0,-11 -4,-22 -10,-31 -7,-9 -17,-16 -28,-20l-4 -1 1 -4c2,-11 7,-21 13,-29 6,-9 14,-16 24,-21 11,-7 23,-14 34,-23 11,-9 21,-19 31,-30l2 -2 3 1c3,0 8,0 13,1 5,0 11,0 18,0l0 0c24,0 55,-2 89,-12 26,-7 54,-18 81,-34l0 0c23,-14 51,-34 80,-62 21,-22 43,-48 62,-80 23,-37 40,-78 51,-121 11,-44 17,-91 16,-140z"/>
 </g>
</svg>
